<svg width="495" height="363" viewBox="0 0 495 363" fill="none" xmlns="http://www.w3.org/2000/svg">
<line x1="279.061" y1="7.93934" x2="412.845" y2="141.724" stroke="#3F3F3F" stroke-width="3"/>
<line x1="7.06066" y1="1.93934" x2="140.845" y2="135.724" stroke="#3F3F3F" stroke-width="3"/>
<line x1="127.061" y1="214.939" x2="260.845" y2="348.724" stroke="#3F3F3F" stroke-width="3"/>
<mask id="path-4-inside-1" fill="white">
<path fill-rule="evenodd" clip-rule="evenodd" d="M23.8308 242.608L7.3042 259.134L27.4463 279.276L7.30484 299.418L23.8314 315.944L43.9729 295.803L64.1143 315.944L80.6409 299.418L60.4995 279.276L80.6415 259.134L64.115 242.608L43.9729 262.75L23.8308 242.608Z"/>
</mask>
<path fill-rule="evenodd" clip-rule="evenodd" d="M23.8308 242.608L7.3042 259.134L27.4463 279.276L7.30484 299.418L23.8314 315.944L43.9729 295.803L64.1143 315.944L80.6409 299.418L60.4995 279.276L80.6415 259.134L64.115 242.608L43.9729 262.75L23.8308 242.608Z" fill="#3F3F3F"/>
<path d="M7.3042 259.134L5.88999 257.72L4.47577 259.134L5.88999 260.548L7.3042 259.134ZM23.8308 242.608L25.245 241.193L23.8308 239.779L22.4166 241.193L23.8308 242.608ZM27.4463 279.276L28.8606 280.691L30.2748 279.276L28.8606 277.862L27.4463 279.276ZM7.30484 299.418L5.89062 298.004L4.47641 299.418L5.89062 300.832L7.30484 299.418ZM23.8314 315.944L22.4172 317.359L23.8314 318.773L25.2456 317.359L23.8314 315.944ZM43.9729 295.803L45.3871 294.389L43.9729 292.975L42.5587 294.389L43.9729 295.803ZM64.1143 315.944L62.7001 317.359L64.1143 318.773L65.5285 317.359L64.1143 315.944ZM80.6409 299.418L82.0551 300.832L83.4693 299.418L82.0551 298.004L80.6409 299.418ZM60.4995 279.276L59.0853 277.862L57.6711 279.276L59.0853 280.691L60.4995 279.276ZM80.6415 259.134L82.0558 260.549L83.47 259.134L82.0558 257.72L80.6415 259.134ZM64.115 242.608L65.5292 241.194L64.115 239.779L62.7008 241.194L64.115 242.608ZM43.9729 262.75L42.5587 264.164L43.9729 265.578L45.3871 264.164L43.9729 262.75ZM8.71841 260.548L25.245 244.022L22.4166 241.193L5.88999 257.72L8.71841 260.548ZM28.8606 277.862L8.71841 257.72L5.88999 260.548L26.0321 280.691L28.8606 277.862ZM8.71905 300.832L28.8606 280.691L26.0321 277.862L5.89062 298.004L8.71905 300.832ZM25.2456 314.53L8.71905 298.004L5.89062 300.832L22.4172 317.359L25.2456 314.53ZM42.5587 294.389L22.4172 314.53L25.2456 317.359L45.3871 297.217L42.5587 294.389ZM65.5285 314.53L45.3871 294.389L42.5587 297.217L62.7001 317.359L65.5285 314.53ZM79.2267 298.004L62.7001 314.53L65.5285 317.359L82.0551 300.832L79.2267 298.004ZM59.0853 280.691L79.2267 300.832L82.0551 298.004L61.9137 277.862L59.0853 280.691ZM79.2273 257.72L59.0853 277.862L61.9137 280.691L82.0558 260.549L79.2273 257.72ZM62.7008 244.022L79.2273 260.549L82.0558 257.72L65.5292 241.194L62.7008 244.022ZM45.3871 264.164L65.5292 244.022L62.7008 241.194L42.5587 261.336L45.3871 264.164ZM22.4166 244.022L42.5587 264.164L45.3871 261.336L25.245 241.193L22.4166 244.022Z" fill="#3F3F3F" mask="url(#path-4-inside-1)"/>
<mask id="path-6-inside-2" fill="white">
<path fill-rule="evenodd" clip-rule="evenodd" d="M16.5266 228L4.60078e-05 244.527L20.1418 264.668L0 284.81L16.5266 301.337L36.6684 281.195L56.8102 301.337L73.3368 284.81L53.195 264.668L73.3367 244.527L56.8101 228L36.6684 248.142L16.5266 228Z"/>
</mask>
<path d="M4.60078e-05 244.527L-1.41417 243.112L-2.82838 244.527L-1.41417 245.941L4.60078e-05 244.527ZM16.5266 228L17.9408 226.586L16.5266 225.172L15.1124 226.586L16.5266 228ZM20.1418 264.668L21.5561 266.083L22.9703 264.668L21.5561 263.254L20.1418 264.668ZM0 284.81L-1.41421 283.396L-2.82843 284.81L-1.41421 286.224L0 284.81ZM16.5266 301.337L15.1124 302.751L16.5266 304.165L17.9408 302.751L16.5266 301.337ZM36.6684 281.195L38.0826 279.781L36.6684 278.367L35.2542 279.781L36.6684 281.195ZM56.8102 301.337L55.396 302.751L56.8102 304.165L58.2244 302.751L56.8102 301.337ZM73.3368 284.81L74.751 286.224L76.1652 284.81L74.751 283.396L73.3368 284.81ZM53.195 264.668L51.7808 263.254L50.3666 264.668L51.7808 266.083L53.195 264.668ZM73.3367 244.527L74.7509 245.941L76.1651 244.527L74.7509 243.112L73.3367 244.527ZM56.8101 228L58.2243 226.586L56.8101 225.172L55.3959 226.586L56.8101 228ZM36.6684 248.142L35.2542 249.556L36.6684 250.97L38.0826 249.556L36.6684 248.142ZM1.41426 245.941L17.9408 229.414L15.1124 226.586L-1.41417 243.112L1.41426 245.941ZM21.5561 263.254L1.41426 243.112L-1.41417 245.941L18.7276 266.083L21.5561 263.254ZM1.41421 286.224L21.5561 266.083L18.7276 263.254L-1.41421 283.396L1.41421 286.224ZM17.9408 299.923L1.41421 283.396L-1.41421 286.224L15.1124 302.751L17.9408 299.923ZM35.2542 279.781L15.1124 299.923L17.9408 302.751L38.0826 282.609L35.2542 279.781ZM58.2244 299.923L38.0826 279.781L35.2542 282.609L55.396 302.751L58.2244 299.923ZM71.9226 283.396L55.396 299.923L58.2244 302.751L74.751 286.224L71.9226 283.396ZM51.7808 266.083L71.9226 286.224L74.751 283.396L54.6092 263.254L51.7808 266.083ZM71.9225 243.112L51.7808 263.254L54.6092 266.083L74.7509 245.941L71.9225 243.112ZM55.3959 229.414L71.9225 245.941L74.7509 243.112L58.2243 226.586L55.3959 229.414ZM38.0826 249.556L58.2243 229.414L55.3959 226.586L35.2542 246.728L38.0826 249.556ZM15.1124 229.414L35.2542 249.556L38.0826 246.728L17.9408 226.586L15.1124 229.414Z" fill="#3F3F3F" mask="url(#path-6-inside-2)"/>
<path fill-rule="evenodd" clip-rule="evenodd" d="M494.409 225.059L454.567 185.216L406.009 233.774L357.451 185.216L317.608 225.059L366.166 273.617L317.608 322.175L357.45 362.017L406.009 313.459L454.567 362.018L494.409 322.175L445.851 273.617L494.409 225.059Z" fill="url(#paint0_linear)"/>
<mask id="path-9-inside-3" fill="white">
<path fill-rule="evenodd" clip-rule="evenodd" d="M339.843 150L300 189.843L348.558 238.4L300 286.959L339.843 326.801L388.401 278.243L436.959 326.801L476.801 286.959L428.243 238.4L476.801 189.843L436.959 150L388.401 198.558L339.843 150Z"/>
</mask>
<path d="M300 189.843L297.879 187.721L295.758 189.843L297.879 191.964L300 189.843ZM339.843 150L341.964 147.879L339.843 145.757L337.721 147.879L339.843 150ZM348.558 238.4L350.68 240.522L352.801 238.4L350.68 236.279L348.558 238.4ZM300 286.959L297.879 284.837L295.757 286.959L297.879 289.08L300 286.959ZM339.843 326.801L337.721 328.922L339.843 331.044L341.964 328.922L339.843 326.801ZM388.401 278.243L390.522 276.122L388.401 274L386.279 276.122L388.401 278.243ZM436.959 326.801L434.838 328.922L436.959 331.044L439.08 328.922L436.959 326.801ZM476.801 286.959L478.923 289.08L481.044 286.959L478.923 284.837L476.801 286.959ZM428.243 238.4L426.122 236.279L424.001 238.4L426.122 240.522L428.243 238.4ZM476.801 189.843L478.922 191.964L481.044 189.843L478.922 187.721L476.801 189.843ZM436.959 150L439.08 147.879L436.959 145.757L434.837 147.879L436.959 150ZM388.401 198.558L386.279 200.679L388.401 202.801L390.522 200.679L388.401 198.558ZM302.122 191.964L341.964 152.121L337.721 147.879L297.879 187.721L302.122 191.964ZM350.68 236.279L302.122 187.721L297.879 191.964L346.437 240.522L350.68 236.279ZM302.121 289.08L350.68 240.522L346.437 236.279L297.879 284.837L302.121 289.08ZM341.964 324.68L302.121 284.837L297.879 289.08L337.721 328.922L341.964 324.68ZM386.279 276.122L337.721 324.68L341.964 328.922L390.522 280.364L386.279 276.122ZM439.08 324.68L390.522 276.122L386.279 280.364L434.838 328.922L439.08 324.68ZM474.68 284.837L434.838 324.68L439.08 328.922L478.923 289.08L474.68 284.837ZM426.122 240.522L474.68 289.08L478.923 284.837L430.365 236.279L426.122 240.522ZM474.68 187.721L426.122 236.279L430.365 240.522L478.922 191.964L474.68 187.721ZM434.837 152.121L474.68 191.964L478.922 187.721L439.08 147.879L434.837 152.121ZM390.522 200.679L439.08 152.121L434.837 147.879L386.279 196.437L390.522 200.679ZM337.721 152.121L386.279 200.679L390.522 196.437L341.964 147.879L337.721 152.121Z" fill="#9631CD" mask="url(#path-9-inside-3)"/>
<path d="M57 52C57 44.268 63.268 38 71 38H368C375.732 38 382 44.268 382 52V247H57V52Z" fill="#5B5B5B" stroke="black" stroke-width="2"/>
<path d="M70 51H369V234H70V51Z" fill="#252525" stroke="black" stroke-width="2"/>
<rect x="100" y="63" width="240" height="160" rx="3" fill="#2E2E2E"/>
<path d="M34 249H406V257C406 261.971 401.971 266 397 266H43C38.0294 266 34 261.971 34 257V249Z" fill="#5B5B5B" stroke="black" stroke-width="2"/>
<path d="M249.481 246.5C249.226 249.856 246.422 252.5 243 252.5H197C193.578 252.5 190.774 249.856 190.519 246.5H249.481Z" fill="#5B5B5B" stroke="black"/>
<path fill-rule="evenodd" clip-rule="evenodd" d="M297.157 130.966L310.727 138.801L297.157 146.636L297.157 130.966ZM294.157 129.234L294.157 148.368V151.832L297.157 150.1L313.727 140.533L318 143L290.688 158.768L290.688 127.232L294.157 129.234Z" fill="url(#paint1_linear)"/>
<path d="M125.614 154.106H142.075V149.871H130.812V131.646H125.614V154.106Z" fill="white"/>
<path d="M150.145 149.935V144.737H160.573V140.694H150.145V135.817H161.953V131.646H144.979V154.106H162.37V149.935H150.145Z" fill="white"/>
<path d="M195.166 131.646L189.936 147.561L184.802 131.646H179.989L174.695 147.432L169.625 131.646H164.235L171.615 154.106H177.166L182.267 138.898L187.209 154.106H192.792L200.14 131.646H195.166Z" fill="white"/>
<path d="M203.041 154.106H213.245C220.593 154.106 225.63 149.679 225.63 142.876C225.63 136.074 220.593 131.646 213.245 131.646H203.041V154.106ZM208.239 149.839V135.913H212.988C217.448 135.913 220.368 138.577 220.368 142.876C220.368 147.176 217.448 149.839 212.988 149.839H208.239Z" fill="white"/>
<path d="M230.464 154.363C232.196 154.363 233.576 153.048 233.576 151.219C233.576 149.358 232.196 148.138 230.464 148.138C228.731 148.138 227.351 149.358 227.351 151.219C227.351 153.048 228.731 154.363 230.464 154.363Z" fill="white"/>
<path d="M240.908 154.106H246.106V135.881H253.294V131.646H233.721V135.881H240.908V154.106Z" fill="white"/>
<path d="M272.111 131.646L265.181 147.689L258.346 131.646H252.731L262.421 154.106H267.555L277.277 131.646H272.111Z" fill="white"/>
<defs>
<linearGradient id="paint0_linear" x1="406.009" y1="218.11" x2="343.508" y2="374.083" gradientUnits="userSpaceOnUse">
<stop stop-color="#E3833E"/>
<stop offset="1" stop-color="#942FD1"/>
</linearGradient>
<linearGradient id="paint1_linear" x1="304.344" y1="133.099" x2="292.039" y2="159.694" gradientUnits="userSpaceOnUse">
<stop stop-color="#E3833E"/>
<stop offset="1" stop-color="#942FD1"/>
</linearGradient>
</defs>
</svg>
