<svg width="20" height="20" viewBox="0 0 20 20" fill="none" xmlns="http://www.w3.org/2000/svg">
<path fill-rule="evenodd" clip-rule="evenodd" d="M9.68308 0.158325C9.24471 0.158325 8.88935 0.51369 8.88935 0.952055V8.8894H0.951933C0.513568 8.8894 0.158203 9.24476 0.158203 9.68313C0.158203 10.1215 0.513568 10.4769 0.951933 10.4769H8.88935V18.4141C8.88935 18.8525 9.24471 19.2078 9.68308 19.2078C10.1214 19.2078 10.4768 18.8525 10.4768 18.4141V10.4769H18.414C18.8523 10.4769 19.2077 10.1215 19.2077 9.68313C19.2077 9.24476 18.8523 8.8894 18.414 8.8894H10.4768V0.952055C10.4768 0.51369 10.1214 0.158325 9.68308 0.158325Z" fill="url(#paint0_linear)"/>
<defs>
<linearGradient id="paint0_linear" x1="9.68296" y1="3.70242" x2="2.94878" y2="20.5078" gradientUnits="userSpaceOnUse">
<stop stop-color="#E3833E"/>
<stop offset="1" stop-color="#942FD1"/>
</linearGradient>
</defs>
</svg>
