<svg width="73" height="80" viewBox="0 0 73 80" fill="none" xmlns="http://www.w3.org/2000/svg">
<mask id="path-1-inside-1" fill="white">
<path fill-rule="evenodd" clip-rule="evenodd" d="M72.5672 51.9836L57.6953 66.8555L39.5699 48.7301L21.4447 66.8553L6.57275 51.9834L24.698 33.8581L6.57312 15.7333L21.445 0.861359L39.5699 18.9862L57.6949 0.861183L72.5669 15.7331L54.4418 33.8581L72.5672 51.9836Z"/>
</mask>
<path fill-rule="evenodd" clip-rule="evenodd" d="M72.5672 51.9836L57.6953 66.8555L39.5699 48.7301L21.4447 66.8553L6.57275 51.9834L24.698 33.8581L6.57312 15.7333L21.445 0.861359L39.5699 18.9862L57.6949 0.861183L72.5669 15.7331L54.4418 33.8581L72.5672 51.9836Z" fill="#3F3F3F"/>
<path d="M57.6953 66.8555L59.1095 68.2697L57.6953 69.6839L56.2811 68.2697L57.6953 66.8555ZM72.5672 51.9836L73.9814 50.5693L75.3956 51.9836L73.9814 53.3978L72.5672 51.9836ZM39.5699 48.7301L38.1557 47.3158L39.5699 45.9016L40.9841 47.3158L39.5699 48.7301ZM21.4447 66.8553L22.8589 68.2695L21.4447 69.6837L20.0305 68.2695L21.4447 66.8553ZM6.57275 51.9834L5.15854 53.3976L3.74433 51.9834L5.15854 50.5692L6.57275 51.9834ZM24.698 33.8581L26.1122 32.4439L27.5264 33.8581L26.1122 35.2724L24.698 33.8581ZM6.57312 15.7333L5.15891 17.1475L3.74469 15.7333L5.15891 14.3191L6.57312 15.7333ZM21.445 0.861359L20.0308 -0.552856L21.445 -1.96707L22.8592 -0.552856L21.445 0.861359ZM39.5699 18.9862L40.9841 20.4004L39.5699 21.8147L38.1557 20.4004L39.5699 18.9862ZM57.6949 0.861183L56.2807 -0.553032L57.6949 -1.96724L59.1092 -0.553032L57.6949 0.861183ZM72.5669 15.7331L73.9811 14.3189L75.3953 15.7331L73.9811 17.1473L72.5669 15.7331ZM54.4418 33.8581L53.0276 35.2724L51.6134 33.8581L53.0276 32.4439L54.4418 33.8581ZM56.2811 65.4413L71.153 50.5693L73.9814 53.3978L59.1095 68.2697L56.2811 65.4413ZM40.9841 47.3158L59.1095 65.4413L56.2811 68.2697L38.1557 50.1443L40.9841 47.3158ZM20.0305 65.4411L38.1557 47.3158L40.9841 50.1443L22.8589 68.2695L20.0305 65.4411ZM7.98697 50.5692L22.8589 65.4411L20.0305 68.2695L5.15854 53.3976L7.98697 50.5692ZM26.1122 35.2724L7.98697 53.3976L5.15854 50.5692L23.2838 32.4439L26.1122 35.2724ZM7.98733 14.3191L26.1122 32.4439L23.2838 35.2724L5.15891 17.1475L7.98733 14.3191ZM22.8592 2.27557L7.98733 17.1475L5.15891 14.3191L20.0308 -0.552856L22.8592 2.27557ZM38.1557 20.4004L20.0308 2.27557L22.8592 -0.552856L40.9841 17.572L38.1557 20.4004ZM59.1092 2.2754L40.9841 20.4004L38.1557 17.572L56.2807 -0.553032L59.1092 2.2754ZM71.1526 17.1473L56.2807 2.2754L59.1092 -0.553032L73.9811 14.3189L71.1526 17.1473ZM53.0276 32.4439L71.1526 14.3189L73.9811 17.1473L55.856 35.2724L53.0276 32.4439ZM71.153 53.3978L53.0276 35.2724L55.856 32.4439L73.9814 50.5693L71.153 53.3978Z" fill="#3F3F3F" mask="url(#path-1-inside-1)"/>
<mask id="path-3-inside-2" fill="white">
<path fill-rule="evenodd" clip-rule="evenodd" d="M65.9945 65.1281L51.1226 80L32.9971 61.8746L14.8719 79.9998L0 65.1279L18.1252 47.0027L0.000362445 28.8778L14.8723 14.0059L32.9971 32.1308L51.1222 14.0057L65.9941 28.8776L47.8691 47.0027L65.9945 65.1281Z"/>
</mask>
<path d="M51.1226 80L52.5368 81.4142L51.1226 82.8284L49.7083 81.4142L51.1226 80ZM65.9945 65.1281L67.4087 63.7139L68.8229 65.1281L67.4087 66.5423L65.9945 65.1281ZM32.9971 61.8746L31.5829 60.4604L32.9971 59.0462L34.4114 60.4604L32.9971 61.8746ZM14.8719 79.9998L16.2861 81.414L14.8719 82.8282L13.4577 81.414L14.8719 79.9998ZM0 65.1279L-1.41421 66.5421L-2.82843 65.1279L-1.41421 63.7137L0 65.1279ZM18.1252 47.0027L19.5394 45.5885L20.9537 47.0027L19.5394 48.4169L18.1252 47.0027ZM0.000362445 28.8778L-1.41385 30.292L-2.82806 28.8778L-1.41385 27.4636L0.000362445 28.8778ZM14.8723 14.0059L13.4581 12.5917L14.8723 11.1775L16.2865 12.5917L14.8723 14.0059ZM32.9971 32.1308L34.4114 33.545L32.9971 34.9592L31.5829 33.545L32.9971 32.1308ZM51.1222 14.0057L49.708 12.5915L51.1222 11.1773L52.5364 12.5915L51.1222 14.0057ZM65.9941 28.8776L67.4083 27.4634L68.8225 28.8776L67.4083 30.2918L65.9941 28.8776ZM47.8691 47.0027L46.4548 48.4169L45.0406 47.0027L46.4548 45.5885L47.8691 47.0027ZM49.7083 78.5858L64.5803 63.7139L67.4087 66.5423L52.5368 81.4142L49.7083 78.5858ZM34.4114 60.4604L52.5368 78.5858L49.7083 81.4142L31.5829 63.2888L34.4114 60.4604ZM13.4577 78.5856L31.5829 60.4604L34.4114 63.2888L16.2861 81.414L13.4577 78.5856ZM1.41421 63.7137L16.2861 78.5856L13.4577 81.414L-1.41421 66.5421L1.41421 63.7137ZM19.5394 48.4169L1.41421 66.5421L-1.41421 63.7137L16.711 45.5885L19.5394 48.4169ZM1.41458 27.4636L19.5394 45.5885L16.711 48.4169L-1.41385 30.292L1.41458 27.4636ZM16.2865 15.4201L1.41458 30.292L-1.41385 27.4636L13.4581 12.5917L16.2865 15.4201ZM31.5829 33.545L13.4581 15.4201L16.2865 12.5917L34.4114 30.7165L31.5829 33.545ZM52.5364 15.4199L34.4114 33.545L31.5829 30.7165L49.708 12.5915L52.5364 15.4199ZM64.5799 30.2918L49.708 15.4199L52.5364 12.5915L67.4083 27.4634L64.5799 30.2918ZM46.4548 45.5885L64.5799 27.4634L67.4083 30.2918L49.2833 48.4169L46.4548 45.5885ZM64.5803 66.5423L46.4548 48.4169L49.2833 45.5885L67.4087 63.7139L64.5803 66.5423Z" fill="#3F3F3F" mask="url(#path-3-inside-2)"/>
</svg>
