<?xml version="1.0" encoding="UTF-8" standalone="no"?>
<svg
   xmlns:dc="http://purl.org/dc/elements/1.1/"
   xmlns:cc="http://creativecommons.org/ns#"
   xmlns:rdf="http://www.w3.org/1999/02/22-rdf-syntax-ns#"
   xmlns:svg="http://www.w3.org/2000/svg"
   xmlns="http://www.w3.org/2000/svg"
   xmlns:sodipodi="http://sodipodi.sourceforge.net/DTD/sodipodi-0.dtd"
   xmlns:inkscape="http://www.inkscape.org/namespaces/inkscape"
   width="910"
   height="214"
   viewBox="0 0 910 214"
   fill="none"
   version="1.1"
   id="svg42"
   sodipodi:docname="bottom-cta.svg"
   inkscape:version="0.92.4 5da689c313, 2019-01-14">
  <metadata
     id="metadata46">
    <rdf:RDF>
      <cc:Work
         rdf:about="">
        <dc:format>image/svg+xml</dc:format>
        <dc:type
           rdf:resource="http://purl.org/dc/dcmitype/StillImage" />
      </cc:Work>
    </rdf:RDF>
  </metadata>
  <sodipodi:namedview
     pagecolor="#ffffff"
     bordercolor="#666666"
     borderopacity="1"
     objecttolerance="10"
     gridtolerance="10"
     guidetolerance="10"
     inkscape:pageopacity="0"
     inkscape:pageshadow="2"
     inkscape:window-width="1600"
     inkscape:window-height="846"
     id="namedview44"
     showgrid="false"
     inkscape:zoom="0.87912088"
     inkscape:cx="415.97977"
     inkscape:cy="114.46672"
     inkscape:window-x="0"
     inkscape:window-y="27"
     inkscape:window-maximized="1"
     inkscape:current-layer="svg42" />
  <path
     d="M895.931 111.452L785.733 175.075L785.733 47.8296L895.931 111.452Z"
     fill="url(#paint0_linear)"
     id="path2" />
  <path
     d="M801.226 22.4406L906.924 83.4654L801.226 144.49L801.226 22.4406Z"
     stroke="#9631CD"
     stroke-width="3"
     id="path4" />
  <path
     d="M103.262 113.868L82.0992 92.7053L56.3071 118.497L30.5152 92.7054L9.35254 113.868L35.1445 139.66L9.35268 165.452L30.5153 186.614L56.3071 160.823L82.099 186.615L103.262 165.452L77.4697 139.66L103.262 113.868Z"
     id="path6"
     clip-rule="evenodd"
     fill-rule="evenodd"
     fill="url(#paint1_linear)" />
  <mask
     id="path-4-inside-1"
     fill="white">
    <path
       fill-rule="evenodd"
       clip-rule="evenodd"
       d="M93.9091 95.1626L72.7465 74L46.9545 99.792L21.1626 74.0001L7.36327e-06 95.1627L25.7919 120.955L0 146.746L21.1626 167.909L46.9545 142.117L72.7465 167.909L93.9091 146.747L68.1171 120.955L93.9091 95.1626Z"
       id="path8" />
  </mask>
  <path
     d="M72.7465 74L74.8678 71.8787L72.7465 69.7574L70.6252 71.8787L72.7465 74ZM93.9091 95.1626L96.0304 97.2839L98.1517 95.1626L96.0304 93.0413L93.9091 95.1626ZM46.9545 99.792L44.8332 101.913L46.9545 104.035L49.0758 101.913L46.9545 99.792ZM21.1626 74.0001L23.2839 71.8788L21.1626 69.7575L19.0413 71.8788L21.1626 74.0001ZM7.36327e-06 95.1627L-2.12131 93.0414L-4.24263 95.1627L-2.12131 97.284L7.36327e-06 95.1627ZM25.7919 120.955L27.9132 123.076L30.0345 120.955L27.9132 118.833L25.7919 120.955ZM0 146.746L-2.12132 144.625L-4.24264 146.746L-2.12132 148.868L0 146.746ZM21.1626 167.909L19.0413 170.03L21.1626 172.152L23.2839 170.03L21.1626 167.909ZM46.9545 142.117L49.0758 139.996L46.9545 137.875L44.8332 139.996L46.9545 142.117ZM72.7465 167.909L70.6252 170.031L72.7465 172.152L74.8678 170.031L72.7465 167.909ZM93.9091 146.747L96.0304 148.868L98.1517 146.747L96.0304 144.625L93.9091 146.747ZM68.1171 120.955L65.9958 118.833L63.8745 120.955L65.9958 123.076L68.1171 120.955ZM70.6252 76.1213L91.7878 97.2839L96.0304 93.0413L74.8678 71.8787L70.6252 76.1213ZM49.0758 101.913L74.8678 76.1213L70.6252 71.8787L44.8332 97.6707L49.0758 101.913ZM19.0413 76.1214L44.8332 101.913L49.0758 97.6707L23.2839 71.8788L19.0413 76.1214ZM2.12133 97.284L23.2839 76.1214L19.0413 71.8788L-2.12131 93.0414L2.12133 97.284ZM27.9132 118.833L2.12133 93.0414L-2.12131 97.284L23.6706 123.076L27.9132 118.833ZM2.12132 148.868L27.9132 123.076L23.6706 118.833L-2.12132 144.625L2.12132 148.868ZM23.2839 165.788L2.12132 144.625L-2.12132 148.868L19.0413 170.03L23.2839 165.788ZM44.8332 139.996L19.0413 165.788L23.2839 170.03L49.0758 144.239L44.8332 139.996ZM74.8678 165.788L49.0758 139.996L44.8332 144.239L70.6252 170.031L74.8678 165.788ZM91.7878 144.625L70.6252 165.788L74.8678 170.031L96.0304 148.868L91.7878 144.625ZM65.9958 123.076L91.7878 148.868L96.0304 144.625L70.2384 118.833L65.9958 123.076ZM91.7878 93.0413L65.9958 118.833L70.2384 123.076L96.0304 97.2839L91.7878 93.0413Z"
     mask="url(#path-4-inside-1)"
     id="path11"
     fill="#9631CD" />
  <defs
     id="defs40">
    <linearGradient
       id="paint0_linear"
       x1="868.595"
       y1="111.452"
       x2="738.973"
       y2="59.511"
       gradientUnits="userSpaceOnUse">
      <stop
         stop-color="#E3833E"
         id="stop25" />
      <stop
         offset="1"
         stop-color="#942FD1"
         id="stop27" />
    </linearGradient>
    <linearGradient
       id="paint1_linear"
       x1="56.3072"
       y1="110.177"
       x2="23.1094"
       y2="193.023"
       gradientUnits="userSpaceOnUse">
      <stop
         stop-color="#E3833E"
         id="stop30" />
      <stop
         offset="1"
         stop-color="#942FD1"
         id="stop32" />
    </linearGradient>
    <linearGradient
       id="paint2_linear"
       x1="629"
       y1="131.791"
       x2="617.822"
       y2="233.977"
       gradientUnits="userSpaceOnUse">
      <stop
         stop-color="#E3833E"
         id="stop35" />
      <stop
         offset="1"
         stop-color="#942FD1"
         id="stop37" />
    </linearGradient>
  </defs>
</svg>
