<svg width="104" height="113" viewBox="0 0 104 113" fill="none" xmlns="http://www.w3.org/2000/svg">
<path fill-rule="evenodd" clip-rule="evenodd" d="M103.262 39.8679L82.0993 18.7053L56.3072 44.4974L30.5152 18.7054L9.35263 39.868L35.1446 65.66L9.35277 91.4518L30.5154 112.614L56.3072 86.8226L82.0991 112.615L103.262 91.4519L77.4698 65.66L103.262 39.8679Z" fill="url(#paint0_linear)"/>
<mask id="path-2-inside-1" fill="white">
<path fill-rule="evenodd" clip-rule="evenodd" d="M93.9091 21.1626L72.7465 0L46.9545 25.792L21.1626 9.18896e-05L7.36327e-06 21.1627L25.7919 46.9546L0 72.7465L21.1626 93.9091L46.9545 68.1172L72.7465 93.9092L93.9091 72.7466L68.1171 46.9546L93.9091 21.1626Z"/>
</mask>
<path d="M72.7465 0L74.8678 -2.12132L72.7465 -4.24264L70.6252 -2.12132L72.7465 0ZM93.9091 21.1626L96.0304 23.2839L98.1517 21.1626L96.0304 19.0413L93.9091 21.1626ZM46.9545 25.792L44.8332 27.9133L46.9545 30.0346L49.0758 27.9133L46.9545 25.792ZM21.1626 9.18896e-05L23.2839 -2.12123L21.1626 -4.24255L19.0413 -2.12123L21.1626 9.18896e-05ZM7.36327e-06 21.1627L-2.12131 19.0414L-4.24263 21.1627L-2.12131 23.284L7.36327e-06 21.1627ZM25.7919 46.9546L27.9132 49.0759L30.0345 46.9546L27.9132 44.8333L25.7919 46.9546ZM0 72.7465L-2.12132 70.6252L-4.24264 72.7465L-2.12132 74.8678L0 72.7465ZM21.1626 93.9091L19.0413 96.0304L21.1626 98.1517L23.2839 96.0304L21.1626 93.9091ZM46.9545 68.1172L49.0758 65.9959L46.9545 63.8746L44.8332 65.9959L46.9545 68.1172ZM72.7465 93.9092L70.6252 96.0305L72.7465 98.1518L74.8678 96.0305L72.7465 93.9092ZM93.9091 72.7466L96.0304 74.8679L98.1517 72.7466L96.0304 70.6253L93.9091 72.7466ZM68.1171 46.9546L65.9958 44.8333L63.8745 46.9546L65.9958 49.0759L68.1171 46.9546ZM70.6252 2.12132L91.7878 23.2839L96.0304 19.0413L74.8678 -2.12132L70.6252 2.12132ZM49.0758 27.9133L74.8678 2.12132L70.6252 -2.12132L44.8332 23.6707L49.0758 27.9133ZM19.0413 2.12141L44.8332 27.9133L49.0758 23.6707L23.2839 -2.12123L19.0413 2.12141ZM2.12133 23.284L23.2839 2.12141L19.0413 -2.12123L-2.12131 19.0414L2.12133 23.284ZM27.9132 44.8333L2.12133 19.0414L-2.12131 23.284L23.6706 49.0759L27.9132 44.8333ZM2.12132 74.8678L27.9132 49.0759L23.6706 44.8333L-2.12132 70.6252L2.12132 74.8678ZM23.2839 91.7878L2.12132 70.6252L-2.12132 74.8678L19.0413 96.0304L23.2839 91.7878ZM44.8332 65.9959L19.0413 91.7878L23.2839 96.0304L49.0758 70.2385L44.8332 65.9959ZM74.8678 91.7879L49.0758 65.9959L44.8332 70.2385L70.6252 96.0305L74.8678 91.7879ZM91.7878 70.6253L70.6252 91.7879L74.8678 96.0305L96.0304 74.8679L91.7878 70.6253ZM65.9958 49.0759L91.7878 74.8679L96.0304 70.6253L70.2384 44.8333L65.9958 49.0759ZM91.7878 19.0413L65.9958 44.8333L70.2384 49.0759L96.0304 23.2839L91.7878 19.0413Z" fill="#9631CD" mask="url(#path-2-inside-1)"/>
<defs>
<linearGradient id="paint0_linear" x1="56.3072" y1="36.1768" x2="23.1095" y2="119.023" gradientUnits="userSpaceOnUse">
<stop stop-color="#E3833E"/>
<stop offset="1" stop-color="#942FD1"/>
</linearGradient>
</defs>
</svg>
