<svg width="32" height="20" viewBox="0 0 32 20" fill="none" xmlns="http://www.w3.org/2000/svg">
<mask id="path-1-inside-1" fill="white">
<path fill-rule="evenodd" clip-rule="evenodd" d="M2 0C0.895431 0 0 0.895431 0 2V18C0 19.1046 0.895431 20 2 20H30C31.1046 20 32 19.1046 32 18V2C32 0.895431 31.1046 0 30 0H2ZM24.3479 13.1324C24.7826 12.5501 25 11.7808 25 10.8246V10.732C25 9.73329 24.7846 8.94666 24.3537 8.37211C23.9266 7.79756 23.3375 7.51028 22.5863 7.51028C21.8351 7.51028 21.2459 7.77828 20.8189 8.31427V5H19.7607V13.8843H20.7331L20.7846 13.1613C21.2116 13.7204 21.816 14 22.5977 14C23.3298 14 23.9133 13.7108 24.3479 13.1324ZM23.5243 9.01414C23.8027 9.41131 23.9419 9.97429 23.9419 10.7031C23.9419 11.5013 23.8008 12.099 23.5186 12.4961C23.2364 12.8933 22.8418 13.0919 22.3346 13.0919C21.6482 13.0919 21.143 12.7641 20.8189 12.1086V9.40167C21.1239 8.74614 21.6254 8.41838 22.3232 8.41838C22.8456 8.41838 23.2459 8.61697 23.5243 9.01414ZM10.8608 12.2243C10.8608 11.9351 10.7521 11.7114 10.5348 11.5533C10.3213 11.3914 9.94566 11.2526 9.40801 11.1369C8.87417 11.0212 8.449 10.8824 8.13251 10.7204C7.81983 10.5585 7.58723 10.3657 7.4347 10.142C7.28599 9.91838 7.21163 9.65231 7.21163 9.34383C7.21163 8.83098 7.42517 8.39717 7.85224 8.04242C8.28313 7.68766 8.83222 7.51028 9.49952 7.51028C10.2011 7.51028 10.7693 7.69344 11.204 8.05977C11.6425 8.42609 11.8618 8.8946 11.8618 9.4653H10.7979C10.7979 9.17224 10.674 8.91967 10.4261 8.70758C10.1821 8.4955 9.87321 8.38946 9.49952 8.38946C9.1144 8.38946 8.81316 8.47429 8.59581 8.64396C8.37846 8.81362 8.26978 9.03535 8.26978 9.30913C8.26978 9.56748 8.37083 9.76221 8.57293 9.89332C8.77502 10.0244 9.13918 10.1497 9.6654 10.2693C10.1954 10.3888 10.6244 10.5315 10.9523 10.6973C11.2803 10.8631 11.5224 11.0636 11.6787 11.2988C11.8389 11.5302 11.919 11.8136 11.919 12.1491C11.919 12.7082 11.6978 13.1575 11.2555 13.4968C10.8132 13.8323 10.2393 14 9.53384 14C9.03813 14 8.59962 13.9113 8.2183 13.7339C7.83699 13.5566 7.53765 13.3098 7.3203 12.9936C7.10677 12.6735 7 12.3284 7 11.9582H8.05815C8.07722 12.3168 8.2183 12.6022 8.48141 12.8143C8.74833 13.0225 9.09914 13.1266 9.53384 13.1266C9.93422 13.1266 10.2545 13.0456 10.4948 12.8837C10.7388 12.7179 10.8608 12.4981 10.8608 12.2243ZM17.1182 13.2654C16.7064 13.7551 16.102 14 15.3051 14C14.6454 14 14.142 13.8072 13.795 13.4216C13.4519 13.0321 13.2784 12.4576 13.2745 11.6979V7.62596H14.3327V11.669C14.3327 12.6176 14.714 13.0919 15.4766 13.0919C16.285 13.0919 16.8227 12.7873 17.0896 12.178V7.62596H18.1478V13.8843H17.1411L17.1182 13.2654Z"/>
</mask>
<path fill-rule="evenodd" clip-rule="evenodd" d="M2 0C0.895431 0 0 0.895431 0 2V18C0 19.1046 0.895431 20 2 20H30C31.1046 20 32 19.1046 32 18V2C32 0.895431 31.1046 0 30 0H2ZM24.3479 13.1324C24.7826 12.5501 25 11.7808 25 10.8246V10.732C25 9.73329 24.7846 8.94666 24.3537 8.37211C23.9266 7.79756 23.3375 7.51028 22.5863 7.51028C21.8351 7.51028 21.2459 7.77828 20.8189 8.31427V5H19.7607V13.8843H20.7331L20.7846 13.1613C21.2116 13.7204 21.816 14 22.5977 14C23.3298 14 23.9133 13.7108 24.3479 13.1324ZM23.5243 9.01414C23.8027 9.41131 23.9419 9.97429 23.9419 10.7031C23.9419 11.5013 23.8008 12.099 23.5186 12.4961C23.2364 12.8933 22.8418 13.0919 22.3346 13.0919C21.6482 13.0919 21.143 12.7641 20.8189 12.1086V9.40167C21.1239 8.74614 21.6254 8.41838 22.3232 8.41838C22.8456 8.41838 23.2459 8.61697 23.5243 9.01414ZM10.8608 12.2243C10.8608 11.9351 10.7521 11.7114 10.5348 11.5533C10.3213 11.3914 9.94566 11.2526 9.40801 11.1369C8.87417 11.0212 8.449 10.8824 8.13251 10.7204C7.81983 10.5585 7.58723 10.3657 7.4347 10.142C7.28599 9.91838 7.21163 9.65231 7.21163 9.34383C7.21163 8.83098 7.42517 8.39717 7.85224 8.04242C8.28313 7.68766 8.83222 7.51028 9.49952 7.51028C10.2011 7.51028 10.7693 7.69344 11.204 8.05977C11.6425 8.42609 11.8618 8.8946 11.8618 9.4653H10.7979C10.7979 9.17224 10.674 8.91967 10.4261 8.70758C10.1821 8.4955 9.87321 8.38946 9.49952 8.38946C9.1144 8.38946 8.81316 8.47429 8.59581 8.64396C8.37846 8.81362 8.26978 9.03535 8.26978 9.30913C8.26978 9.56748 8.37083 9.76221 8.57293 9.89332C8.77502 10.0244 9.13918 10.1497 9.6654 10.2693C10.1954 10.3888 10.6244 10.5315 10.9523 10.6973C11.2803 10.8631 11.5224 11.0636 11.6787 11.2988C11.8389 11.5302 11.919 11.8136 11.919 12.1491C11.919 12.7082 11.6978 13.1575 11.2555 13.4968C10.8132 13.8323 10.2393 14 9.53384 14C9.03813 14 8.59962 13.9113 8.2183 13.7339C7.83699 13.5566 7.53765 13.3098 7.3203 12.9936C7.10677 12.6735 7 12.3284 7 11.9582H8.05815C8.07722 12.3168 8.2183 12.6022 8.48141 12.8143C8.74833 13.0225 9.09914 13.1266 9.53384 13.1266C9.93422 13.1266 10.2545 13.0456 10.4948 12.8837C10.7388 12.7179 10.8608 12.4981 10.8608 12.2243ZM17.1182 13.2654C16.7064 13.7551 16.102 14 15.3051 14C14.6454 14 14.142 13.8072 13.795 13.4216C13.4519 13.0321 13.2784 12.4576 13.2745 11.6979V7.62596H14.3327V11.669C14.3327 12.6176 14.714 13.0919 15.4766 13.0919C16.285 13.0919 16.8227 12.7873 17.0896 12.178V7.62596H18.1478V13.8843H17.1411L17.1182 13.2654Z" fill="#DFDFDF"/>
<path d="M24.3479 13.1324L25.9468 14.334L25.9506 14.3289L24.3479 13.1324ZM24.3537 8.37211L22.7485 9.56524L22.7536 9.57206L24.3537 8.37211ZM20.8189 8.31427H18.8189V14.0338L22.3831 9.5606L20.8189 8.31427ZM20.8189 5H22.8189V3H20.8189V5ZM19.7607 5V3H17.7607V5H19.7607ZM19.7607 13.8843H17.7607V15.8843H19.7607V13.8843ZM20.7331 13.8843V15.8843H22.5957L22.728 14.0264L20.7331 13.8843ZM20.7846 13.1613L22.374 11.9473L19.165 7.74618L18.7896 13.0193L20.7846 13.1613ZM23.5243 9.01414L21.8865 10.162L21.8865 10.162L23.5243 9.01414ZM20.8189 12.1086H18.8189V12.576L19.0261 12.9951L20.8189 12.1086ZM20.8189 9.40167L19.0056 8.55786L18.8189 8.9591V9.40167H20.8189ZM10.5348 11.5533L9.32621 13.1469L9.34215 13.159L9.35833 13.1707L10.5348 11.5533ZM9.40801 11.1369L8.98445 13.0915L8.98732 13.0921L9.40801 11.1369ZM8.13251 10.7204L7.21265 12.4964L7.22143 12.5009L8.13251 10.7204ZM7.4347 10.142L5.76927 11.2494L5.77576 11.2592L5.78237 11.2689L7.4347 10.142ZM7.85224 8.04242L6.58101 6.49838L6.57429 6.50396L7.85224 8.04242ZM11.204 8.05977L9.91518 9.58915L9.92178 9.59467L11.204 8.05977ZM11.8618 9.4653V11.4653H13.8618V9.4653H11.8618ZM10.7979 9.4653H8.7979V11.4653H10.7979V9.4653ZM10.4261 8.70758L9.11421 10.2172L9.12 10.2222L9.12583 10.2272L10.4261 8.70758ZM8.59581 8.64396L9.82647 10.2205L9.82647 10.2205L8.59581 8.64396ZM9.6654 10.2693L9.22235 12.2196L9.22539 12.2203L9.6654 10.2693ZM11.6787 11.2988L10.0131 12.4059L10.0235 12.4216L10.0343 12.4372L11.6787 11.2988ZM11.2555 13.4968L12.4641 15.0903L12.4728 15.0836L11.2555 13.4968ZM8.2183 13.7339L7.37476 15.5473L7.37476 15.5473L8.2183 13.7339ZM7.3203 12.9936L5.65661 14.1036L5.66429 14.1151L5.67214 14.1265L7.3203 12.9936ZM7 11.9582V9.95823H5V11.9582H7ZM8.05815 11.9582L10.0553 11.852L9.95464 9.95823H8.05815V11.9582ZM8.48141 12.8143L7.22627 14.3714L7.23868 14.3814L7.25125 14.3912L8.48141 12.8143ZM10.4948 12.8837L11.6128 14.542L11.6187 14.538L10.4948 12.8837ZM17.1182 13.2654L19.1168 13.1915L18.9253 8.00911L15.5875 11.9782L17.1182 13.2654ZM13.795 13.4216L12.2945 14.7438L12.3014 14.7517L12.3084 14.7594L13.795 13.4216ZM13.2745 11.6979H11.2745L11.2746 11.708L13.2745 11.6979ZM13.2745 7.62596V5.62596H11.2745V7.62596H13.2745ZM14.3327 7.62596H16.3327V5.62596H14.3327V7.62596ZM17.0896 12.178L18.9215 12.9806L19.0896 12.5969V12.178H17.0896ZM17.0896 7.62596V5.62596H15.0896V7.62596H17.0896ZM18.1478 7.62596H20.1478V5.62596H18.1478V7.62596ZM18.1478 13.8843V15.8843H20.1478V13.8843H18.1478ZM17.1411 13.8843L15.1425 13.9582L15.2137 15.8843H17.1411V13.8843ZM2 2V2V-2C-0.20914 -2 -2 -0.209138 -2 2H2ZM2 18V2H-2V18H2ZM2 18H-2C-2 20.2091 -0.209138 22 2 22V18ZM30 18H2V22H30V18ZM30 18V22C32.2091 22 34 20.2091 34 18H30ZM30 2V18H34V2H30ZM30 2H34C34 -0.209138 32.2091 -2 30 -2V2ZM2 2H30V-2H2V2ZM23 10.8246C23 11.4855 22.8511 11.7942 22.7453 11.9359L25.9506 14.3289C26.7142 13.3061 27 12.0762 27 10.8246H23ZM23 10.732V10.8246H27V10.732H23ZM22.7536 9.57206C22.8407 9.68812 23 10.0007 23 10.732H27C27 9.46592 26.7284 8.2052 25.9537 7.17215L22.7536 9.57206ZM22.5863 9.51028C22.6465 9.51028 22.6828 9.51602 22.7001 9.51973C22.7166 9.52326 22.7197 9.52572 22.7149 9.5234C22.7099 9.52097 22.7074 9.51867 22.7094 9.52038C22.712 9.52258 22.7259 9.5348 22.7485 9.56523L25.9588 7.17899C25.1331 6.06816 23.9335 5.51028 22.5863 5.51028V9.51028ZM22.3831 9.5606C22.4002 9.5391 22.4098 9.53151 22.4105 9.531C22.4111 9.53048 22.4109 9.53072 22.41 9.53128C22.4091 9.53184 22.4086 9.53201 22.4092 9.53177C22.4094 9.53165 22.4197 9.52684 22.4454 9.52171C22.4718 9.51643 22.5173 9.51028 22.5863 9.51028V5.51028C21.293 5.51028 20.101 6.00574 19.2547 7.06794L22.3831 9.5606ZM18.8189 5V8.31427H22.8189V5H18.8189ZM19.7607 7H20.8189V3H19.7607V7ZM21.7607 13.8843V5H17.7607V13.8843H21.7607ZM20.7331 11.8843H19.7607V15.8843H20.7331V11.8843ZM18.7896 13.0193L18.7381 13.7423L22.728 14.0264L22.7795 13.3033L18.7896 13.0193ZM22.5977 12C22.5213 12 22.4704 11.9932 22.4401 11.9871C22.4107 11.9811 22.3986 11.9755 22.3978 11.9751C22.397 11.9747 22.3974 11.9749 22.3985 11.9756C22.3997 11.9763 22.4002 11.9767 22.3999 11.9765C22.3995 11.9762 22.3973 11.9744 22.3932 11.9702C22.3892 11.9659 22.3826 11.9586 22.374 11.9473L19.1952 14.3753C20.0463 15.4897 21.2721 16 22.5977 16V12ZM22.7491 11.9308C22.7217 11.9673 22.7034 11.9842 22.6968 11.9897C22.6909 11.9948 22.6912 11.9936 22.6961 11.9912C22.701 11.9888 22.7005 11.99 22.6895 11.9924C22.6777 11.995 22.6488 12 22.5977 12V16C23.9499 16 25.129 15.4221 25.9468 14.334L22.7491 11.9308ZM25.9419 10.7031C25.9419 9.75815 25.7675 8.7301 25.1621 7.86627L21.8865 10.162C21.8594 10.1233 21.8742 10.1265 21.8959 10.2142C21.9183 10.3046 21.9419 10.4611 21.9419 10.7031H25.9419ZM25.149 13.6545C25.7813 12.7645 25.9419 11.6749 25.9419 10.7031H21.9419C21.9419 10.9909 21.9158 11.1793 21.8895 11.2905C21.8634 11.4011 21.8464 11.3966 21.8882 11.3378L25.149 13.6545ZM22.3346 15.0919C23.4581 15.0919 24.4739 14.6047 25.149 13.6545L21.8882 11.3378C21.9162 11.2983 21.9889 11.2183 22.112 11.1564C22.2322 11.0959 22.3223 11.0919 22.3346 11.0919V15.0919ZM19.0261 12.9951C19.3133 13.5761 19.7395 14.1263 20.3524 14.5239C20.9727 14.9264 21.6606 15.0919 22.3346 15.0919V11.0919C22.3227 11.0919 22.3425 11.0906 22.3842 11.1021C22.4278 11.1141 22.4791 11.1356 22.5294 11.1682C22.6371 11.2381 22.6485 11.2967 22.6117 11.2222L19.0261 12.9951ZM18.8189 9.40167V12.1086H22.8189V9.40167H18.8189ZM22.3232 6.41838C21.6511 6.41838 20.9563 6.58037 20.3295 6.99012C19.7071 7.39695 19.2828 7.96212 19.0056 8.55786L22.6322 10.2455C22.66 10.1857 22.639 10.2592 22.518 10.3383C22.4623 10.3747 22.4075 10.3972 22.3639 10.4091C22.3225 10.4204 22.3054 10.4184 22.3232 10.4184V6.41838ZM25.1621 7.86628C24.4767 6.88834 23.4387 6.41838 22.3232 6.41838V10.4184C22.328 10.4184 22.2456 10.4181 22.1266 10.359C22.002 10.2973 21.9225 10.2133 21.8865 10.162L25.1621 7.86628ZM9.35833 13.1707C9.22372 13.0728 9.08091 12.9205 8.98044 12.7138C8.88246 12.5121 8.86082 12.3333 8.86082 12.2243H12.8608C12.8608 11.3521 12.4903 10.5026 11.7113 9.93596L9.35833 13.1707ZM8.98732 13.0921C9.19506 13.1368 9.32656 13.1767 9.3996 13.2037C9.43446 13.2166 9.44406 13.2222 9.43485 13.2175C9.42673 13.2134 9.38559 13.1919 9.32621 13.1469L11.7434 9.95982C11.1593 9.51685 10.4134 9.30744 9.8287 9.18164L8.98732 13.0921ZM7.22143 12.5009C7.75127 12.772 8.36143 12.9565 8.98445 13.0915L9.83157 9.18225C9.3869 9.0859 9.14673 8.99279 9.04358 8.94L7.22143 12.5009ZM5.78237 11.2689C6.16929 11.8362 6.69162 12.2265 7.21266 12.4964L9.05235 8.94452C9.00262 8.91876 8.98981 8.90622 8.99987 8.91457C9.01113 8.9239 9.04648 8.95571 9.08703 9.01517L5.78237 11.2689ZM5.21163 9.34383C5.21163 9.98615 5.37127 10.6509 5.76927 11.2494L9.10013 9.03463C9.14534 9.10262 9.17589 9.17311 9.19359 9.23644C9.21071 9.29769 9.21163 9.33701 9.21163 9.34383H5.21163ZM6.57429 6.50396C5.73278 7.20298 5.21163 8.1826 5.21163 9.34383H9.21163C9.21163 9.35528 9.21033 9.38004 9.20265 9.41409C9.19487 9.44858 9.18247 9.484 9.16617 9.51711C9.13165 9.58723 9.10101 9.60511 9.13019 9.58088L6.57429 6.50396ZM9.49952 5.51028C8.46294 5.51028 7.4367 5.7939 6.58102 6.49839L9.12346 9.58644C9.12955 9.58142 9.2015 9.51028 9.49952 9.51028V5.51028ZM12.4928 6.5304C11.6187 5.79382 10.5585 5.51028 9.49952 5.51028V9.51028C9.67759 9.51028 9.78364 9.5336 9.8382 9.55118C9.88766 9.56713 9.90633 9.58167 9.9152 9.58914L12.4928 6.5304ZM13.8618 9.4653C13.8618 8.30105 13.379 7.27065 12.4862 6.52487L9.92178 9.59467C9.93305 9.60407 9.93045 9.60366 9.92081 9.59144C9.9108 9.57873 9.89778 9.55905 9.88588 9.53363C9.87398 9.5082 9.86715 9.48546 9.86374 9.46932C9.86047 9.45378 9.86177 9.45112 9.86177 9.4653H13.8618ZM10.7979 11.4653H11.8618V7.4653H10.7979V11.4653ZM9.12583 10.2272C9.07563 10.1842 8.98498 10.091 8.90945 9.93707C8.83122 9.77763 8.7979 9.61109 8.7979 9.4653H12.7979C12.7979 8.51739 12.3619 7.73173 11.7264 7.18797L9.12583 10.2272ZM9.49952 10.3895C9.49677 10.3895 9.44432 10.3889 9.362 10.3606C9.2756 10.3309 9.18838 10.2816 9.11421 10.2172L11.738 7.19798C11.0742 6.62105 10.2757 6.38946 9.49952 6.38946V10.3895ZM9.82647 10.2205C9.57632 10.4158 9.38671 10.3895 9.49952 10.3895V6.38946C8.84208 6.38946 8.04999 6.53282 7.36514 7.06742L9.82647 10.2205ZM10.2698 9.30913C10.2698 9.4438 10.2412 9.62596 10.1472 9.81773C10.0534 10.0091 9.92838 10.1409 9.82647 10.2205L7.36514 7.06742C6.66633 7.61293 6.26978 8.41427 6.26978 9.30913H10.2698ZM9.6614 8.21545C9.82169 8.31944 9.99646 8.48816 10.1208 8.72775C10.2421 8.9615 10.2698 9.17451 10.2698 9.30913H6.26978C6.26978 10.1864 6.6664 11.0405 7.48445 11.5712L9.6614 8.21545ZM10.1084 8.31897C9.89011 8.26937 9.74146 8.2265 9.64844 8.19449C9.6032 8.17892 9.58222 8.1697 9.57993 8.16866C9.57574 8.16677 9.60781 8.18068 9.6614 8.21545L7.48445 11.5712C8.00884 11.9114 8.68035 12.0965 9.22235 12.2196L10.1084 8.31897ZM11.8548 8.91248C11.3284 8.6463 10.7271 8.4585 10.1054 8.31828L9.22539 12.2203C9.66371 12.3191 9.92045 12.4167 10.0499 12.4821L11.8548 8.91248ZM13.3444 10.1918C12.9473 9.59434 12.401 9.18864 11.8548 8.91248L10.0499 12.4821C10.1025 12.5087 10.1154 12.5217 10.1043 12.5124C10.0917 12.502 10.0545 12.4683 10.0131 12.4059L13.3444 10.1918ZM13.919 12.1491C13.919 11.4867 13.7565 10.7865 13.3232 10.1605L10.0343 12.4372C9.98304 12.3631 9.95137 12.2893 9.93426 12.2287C9.91792 12.1709 9.91897 12.1402 9.91897 12.1491H13.919ZM12.4728 15.0836C13.4103 14.3645 13.919 13.3279 13.919 12.1491H9.91897C9.91897 12.1584 9.91896 12.1028 9.95876 12.022C9.99866 11.9409 10.0434 11.9059 10.0381 11.9099L12.4728 15.0836ZM9.53384 16C10.5563 16 11.5896 15.7536 12.4641 15.0903L10.0469 11.9033C10.0367 11.911 9.92228 12 9.53384 12V16ZM7.37476 15.5473C8.06339 15.8677 8.79829 16 9.53384 16V12C9.27797 12 9.13585 11.955 9.06185 11.9205L7.37476 15.5473ZM5.67214 14.1265C6.11119 14.7652 6.70131 15.2341 7.37476 15.5473L9.06185 11.9205C9.01217 11.8974 8.98841 11.8795 8.98008 11.8727C8.97261 11.8665 8.9704 11.8634 8.96847 11.8606L5.67214 14.1265ZM5 11.9582C5 12.7396 5.23292 13.4685 5.65661 14.1036L8.984 11.8836C8.97716 11.8733 8.98362 11.8806 8.99073 11.9036C8.994 11.9142 8.99651 11.9252 8.99811 11.9359C8.99969 11.9465 9 11.9543 9 11.9582H5ZM8.05815 9.95823H7V13.9582H8.05815V9.95823ZM9.73655 11.2571C9.81652 11.3216 9.90529 11.4217 9.97109 11.5548C10.0355 11.6849 10.0523 11.7948 10.0553 11.852L6.06097 12.0644C6.10805 12.95 6.49071 13.7785 7.22627 14.3714L9.73655 11.2571ZM9.53384 11.1266C9.4741 11.1266 9.4736 11.1193 9.51374 11.1312C9.55854 11.1445 9.63244 11.1756 9.71158 11.2373L7.25125 14.3912C7.95873 14.9431 8.78139 15.1266 9.53384 15.1266V11.1266ZM9.37676 11.2253C9.47298 11.1605 9.55142 11.1352 9.58416 11.1269C9.61382 11.1194 9.60231 11.1266 9.53384 11.1266V15.1266C10.1852 15.1266 10.9381 14.9968 11.6128 14.542L9.37676 11.2253ZM8.86082 12.2243C8.86082 12.0526 8.90239 11.8368 9.0207 11.6237C9.13583 11.4163 9.2788 11.2919 9.37078 11.2294L11.6187 14.538C12.3604 14.034 12.8608 13.2192 12.8608 12.2243H8.86082ZM15.3051 16C16.5347 16 17.7661 15.6025 18.6489 14.5527L15.5875 11.9782C15.5873 11.9785 15.5886 11.9769 15.5915 11.9742C15.5944 11.9715 15.5978 11.9686 15.6016 11.9659C15.61 11.9598 15.6131 11.9595 15.6051 11.9627C15.588 11.9696 15.5017 12 15.3051 12V16ZM12.3084 14.7594C13.1323 15.675 14.2429 16 15.3051 16V12C15.1667 12 15.1267 11.9795 15.1482 11.9877C15.1597 11.9921 15.182 12.0023 15.2095 12.021C15.2372 12.0398 15.2619 12.0618 15.2817 12.0838L12.3084 14.7594ZM11.2746 11.708C11.2797 12.7319 11.5117 13.8555 12.2945 14.7438L15.2956 12.0993C15.3413 12.1512 15.3388 12.1756 15.3221 12.1204C15.3035 12.0588 15.2757 11.9238 15.2745 11.6879L11.2746 11.708ZM11.2745 7.62596V11.6979H15.2745V7.62596H11.2745ZM14.3327 5.62596H13.2745V9.62596H14.3327V5.62596ZM16.3327 11.669V7.62596H12.3327V11.669H16.3327ZM15.4766 11.0919C15.4898 11.0919 15.5931 11.0937 15.7422 11.1555C15.9034 11.2223 16.0587 11.3354 16.1774 11.483C16.3933 11.7516 16.3327 11.9279 16.3327 11.669H12.3327C12.3327 12.3587 12.4627 13.2465 13.06 13.9893C13.7243 14.8156 14.6573 15.0919 15.4766 15.0919V11.0919ZM15.2577 11.3754C15.2662 11.3561 15.2897 11.3106 15.3375 11.2563C15.3864 11.2007 15.4438 11.1553 15.5003 11.1233C15.6109 11.0607 15.6387 11.0919 15.4766 11.0919V15.0919C16.1229 15.0919 16.8238 14.9708 17.4721 14.6035C18.1461 14.2216 18.6288 13.6488 18.9215 12.9806L15.2577 11.3754ZM15.0896 7.62596V12.178H19.0896V7.62596H15.0896ZM18.1478 5.62596H17.0896V9.62596H18.1478V5.62596ZM20.1478 13.8843V7.62596H16.1478V13.8843H20.1478ZM17.1411 15.8843H18.1478V11.8843H17.1411V15.8843ZM15.1196 13.3393L15.1425 13.9582L19.1397 13.8104L19.1168 13.1915L15.1196 13.3393Z" fill="#DFDFDF" mask="url(#path-1-inside-1)"/>
</svg>
