<svg width="32" height="20" viewBox="0 0 32 20" fill="none" xmlns="http://www.w3.org/2000/svg">
<rect x="1" y="1" width="30" height="18" rx="1" stroke="#DFDFDF" stroke-width="2"/>
<path d="M10.8608 12.2243C10.8608 11.9351 10.7521 11.7114 10.5348 11.5533C10.3213 11.3914 9.94566 11.2526 9.40801 11.1369C8.87417 11.0212 8.449 10.8824 8.13251 10.7204C7.81983 10.5585 7.58723 10.3657 7.4347 10.142C7.28599 9.91838 7.21163 9.65231 7.21163 9.34383C7.21163 8.83098 7.42517 8.39717 7.85224 8.04242C8.28313 7.68766 8.83222 7.51028 9.49952 7.51028C10.2011 7.51028 10.7693 7.69344 11.204 8.05977C11.6425 8.42609 11.8618 8.8946 11.8618 9.4653H10.7979C10.7979 9.17224 10.674 8.91967 10.4261 8.70758C10.1821 8.4955 9.87321 8.38946 9.49952 8.38946C9.11439 8.38946 8.81316 8.47429 8.59581 8.64396C8.37846 8.81362 8.26978 9.03535 8.26978 9.30913C8.26978 9.56748 8.37083 9.76221 8.57293 9.89332C8.77502 10.0244 9.13918 10.1497 9.6654 10.2693C10.1954 10.3888 10.6244 10.5315 10.9523 10.6973C11.2803 10.8631 11.5224 11.0636 11.6787 11.2988C11.8389 11.5302 11.919 11.8136 11.919 12.1491C11.919 12.7082 11.6978 13.1575 11.2555 13.4968C10.8132 13.8323 10.2393 14 9.53384 14C9.03813 14 8.59962 13.9113 8.2183 13.7339C7.83699 13.5566 7.53765 13.3098 7.32031 12.9936C7.10677 12.6735 7 12.3284 7 11.9582H8.05815C8.07722 12.3168 8.2183 12.6022 8.48141 12.8143C8.74833 13.0225 9.09914 13.1266 9.53384 13.1266C9.93422 13.1266 10.2545 13.0456 10.4948 12.8837C10.7388 12.7179 10.8608 12.4981 10.8608 12.2243Z" fill="#DFDFDF"/>
<path d="M17.1182 13.2654C16.7064 13.7551 16.102 14 15.3051 14C14.6454 14 14.142 13.8072 13.795 13.4216C13.4519 13.0321 13.2784 12.4576 13.2745 11.6979V7.62596H14.3327V11.669C14.3327 12.6176 14.714 13.0919 15.4766 13.0919C16.285 13.0919 16.8227 12.7873 17.0896 12.178V7.62596H18.1478V13.8843H17.1411L17.1182 13.2654Z" fill="#DFDFDF"/>
<path d="M25 10.8246C25 11.7808 24.7826 12.5501 24.3479 13.1324C23.9133 13.7108 23.3298 14 22.5977 14C21.816 14 21.2116 13.7204 20.7846 13.1613L20.7331 13.8843H19.7607V5H20.8189V8.31427C21.2459 7.77828 21.8351 7.51028 22.5863 7.51028C23.3375 7.51028 23.9266 7.79756 24.3537 8.37211C24.7846 8.94666 25 9.73329 25 10.732V10.8246ZM23.9419 10.7031C23.9419 9.97429 23.8027 9.41131 23.5243 9.01414C23.2459 8.61697 22.8456 8.41838 22.3232 8.41838C21.6254 8.41838 21.1239 8.74614 20.8189 9.40167V12.1086C21.143 12.7641 21.6482 13.0919 22.3346 13.0919C22.8418 13.0919 23.2364 12.8933 23.5186 12.4961C23.8008 12.099 23.9419 11.5013 23.9419 10.7031Z" fill="#DFDFDF"/>
</svg>
