<svg width="20" height="21" viewBox="0 0 20 21" fill="none" xmlns="http://www.w3.org/2000/svg">
<path fill-rule="evenodd" clip-rule="evenodd" d="M11.856 1.4727C11.398 -0.4909 8.60254 -0.4909 8.14449 1.4727C7.84804 2.74355 6.39073 3.34714 5.28251 2.65809C3.57024 1.59346 1.59391 3.57064 2.65826 5.28309C3.34714 6.39143 2.74364 7.8489 1.47281 8.14546C-0.490936 8.6037 -0.490936 11.3993 1.47281 11.8576C2.74364 12.1542 3.34714 13.6116 2.65826 14.72C1.59391 16.4324 3.57024 18.4096 5.28251 17.345C6.39073 16.6559 7.84804 17.2595 8.14449 18.5304C8.60254 20.494 11.398 20.494 11.856 18.5304C12.1525 17.2595 13.6098 16.6559 14.718 17.345C16.4303 18.4096 18.4066 16.4324 17.3423 14.72C16.6534 13.6116 17.2569 12.1542 18.5277 11.8576C20.4915 11.3993 20.4915 8.6037 18.5277 8.14546C17.2569 7.8489 16.6534 6.39143 17.3423 5.28309C18.4066 3.57064 16.4303 1.59346 14.718 2.65809C13.6098 3.34714 12.1525 2.74355 11.856 1.4727ZM10 15.4963C13.0341 15.4963 15.4938 13.0362 15.4938 10.0015C15.4938 6.96685 13.0341 4.50675 10 4.50675C6.96589 4.50675 4.50624 6.96685 4.50624 10.0015C4.50624 13.0362 6.96589 15.4963 10 15.4963Z" fill="#DFDFDF"/>
</svg>
