<svg width="39" height="14" viewBox="0 0 39 14" fill="none" xmlns="http://www.w3.org/2000/svg">
<circle cx="36" cy="8" r="3" fill="#E3833D"/>
<path d="M4.51172 9.31836C4.51172 9.02539 4.40039 8.79883 4.17773 8.63867C3.95898 8.47461 3.57422 8.33398 3.02344 8.2168C2.47656 8.09961 2.04102 7.95898 1.7168 7.79492C1.39648 7.63086 1.1582 7.43555 1.00195 7.20898C0.849609 6.98242 0.773438 6.71289 0.773438 6.40039C0.773438 5.88086 0.992188 5.44141 1.42969 5.08203C1.87109 4.72266 2.43359 4.54297 3.11719 4.54297C3.83594 4.54297 4.41797 4.72852 4.86328 5.09961C5.3125 5.4707 5.53711 5.94531 5.53711 6.52344H4.44727C4.44727 6.22656 4.32031 5.9707 4.06641 5.75586C3.81641 5.54102 3.5 5.43359 3.11719 5.43359C2.72266 5.43359 2.41406 5.51953 2.19141 5.69141C1.96875 5.86328 1.85742 6.08789 1.85742 6.36523C1.85742 6.62695 1.96094 6.82422 2.16797 6.95703C2.375 7.08984 2.74805 7.2168 3.28711 7.33789C3.83008 7.45898 4.26953 7.60352 4.60547 7.77148C4.94141 7.93945 5.18945 8.14258 5.34961 8.38086C5.51367 8.61523 5.5957 8.90234 5.5957 9.24219C5.5957 9.80859 5.36914 10.2637 4.91602 10.6074C4.46289 10.9473 3.875 11.1172 3.15234 11.1172C2.64453 11.1172 2.19531 11.0273 1.80469 10.8477C1.41406 10.668 1.10742 10.418 0.884766 10.0977C0.666016 9.77344 0.556641 9.42383 0.556641 9.04883H1.64062C1.66016 9.41211 1.80469 9.70117 2.07422 9.91602C2.34766 10.127 2.70703 10.2324 3.15234 10.2324C3.5625 10.2324 3.89062 10.1504 4.13672 9.98633C4.38672 9.81836 4.51172 9.5957 4.51172 9.31836ZM9.08203 9.41211L10.5586 4.66016H11.7188L9.16992 11.9785C8.77539 13.0332 8.14844 13.5605 7.28906 13.5605L7.08398 13.543L6.67969 13.4668V12.5879L6.97266 12.6113C7.33984 12.6113 7.625 12.5371 7.82812 12.3887C8.03516 12.2402 8.20508 11.9688 8.33789 11.5742L8.57812 10.9297L6.31641 4.66016H7.5L9.08203 9.41211ZM13.7168 4.66016L13.752 5.45703C14.2363 4.84766 14.8691 4.54297 15.6504 4.54297C16.9902 4.54297 17.666 5.29883 17.6777 6.81055V11H16.5938V6.80469C16.5898 6.34766 16.4844 6.00977 16.2773 5.79102C16.0742 5.57227 15.7559 5.46289 15.3223 5.46289C14.9707 5.46289 14.6621 5.55664 14.3965 5.74414C14.1309 5.93164 13.9238 6.17773 13.7754 6.48242V11H12.6914V4.66016H13.7168ZM21.8555 10.2324C22.2422 10.2324 22.5801 10.1152 22.8691 9.88086C23.1582 9.64648 23.3184 9.35352 23.3496 9.00195H24.375C24.3555 9.36523 24.2305 9.71094 24 10.0391C23.7695 10.3672 23.4609 10.6289 23.0742 10.8242C22.6914 11.0195 22.2852 11.1172 21.8555 11.1172C20.9922 11.1172 20.3047 10.8301 19.793 10.2559C19.2852 9.67773 19.0312 8.88867 19.0312 7.88867V7.70703C19.0312 7.08984 19.1445 6.54102 19.3711 6.06055C19.5977 5.58008 19.9219 5.20703 20.3438 4.94141C20.7695 4.67578 21.2715 4.54297 21.8496 4.54297C22.5605 4.54297 23.1504 4.75586 23.6191 5.18164C24.0918 5.60742 24.3438 6.16016 24.375 6.83984H23.3496C23.3184 6.42969 23.1621 6.09375 22.8809 5.83203C22.6035 5.56641 22.2598 5.43359 21.8496 5.43359C21.2988 5.43359 20.8711 5.63281 20.5664 6.03125C20.2656 6.42578 20.1152 6.99805 20.1152 7.74805V7.95312C20.1152 8.68359 20.2656 9.24609 20.5664 9.64062C20.8672 10.0352 21.2969 10.2324 21.8555 10.2324Z" fill="#DFDFDF"/>
</svg>
