<svg width="16" height="18" viewBox="0 0 16 18" fill="none" xmlns="http://www.w3.org/2000/svg">
<path fill-rule="evenodd" clip-rule="evenodd" d="M6.26666 12.7659H2C0.895433 12.7659 0 11.8704 0 10.7659V6.55464C0 5.45007 0.895431 4.55464 2 4.55464H6.26668L11 0L11 17.3205L6.26666 12.7659Z" fill="#DFDFDF"/>
<path d="M12.5 12.6602C12.9596 12.6602 13.4148 12.5697 13.8394 12.3938C14.264 12.2179 14.6499 11.9601 14.9749 11.6351C15.2999 11.3101 15.5577 10.9243 15.7336 10.4996C15.9095 10.075 16 9.61987 16 9.16025C16 8.70062 15.9095 8.2455 15.7336 7.82086C15.5577 7.39622 15.2999 7.01038 14.9749 6.68537C14.6499 6.36037 14.264 6.10256 13.8394 5.92667C13.4148 5.75078 12.9596 5.66025 12.5 5.66025L12.5 9.16025L12.5 12.6602Z" fill="#DFDFDF"/>
</svg>
