<svg width="810" height="557" viewBox="0 0 810 557" fill="none" xmlns="http://www.w3.org/2000/svg">
<line x1="1.06066" y1="163.939" x2="134.845" y2="297.724" stroke="#3F3F3F" stroke-width="3"/>
<line x1="101.061" y1="372.939" x2="234.845" y2="506.724" stroke="#3F3F3F" stroke-width="3"/>
<line x1="334.061" y1="1.93934" x2="467.845" y2="135.724" stroke="#3F3F3F" stroke-width="3"/>
<line x1="675.061" y1="309.939" x2="808.845" y2="443.724" stroke="#3F3F3F" stroke-width="3"/>
<line x1="436.061" y1="416.939" x2="569.845" y2="550.724" stroke="#3F3F3F" stroke-width="3"/>
<path d="M465 105.163H517.326V157.489H569.652V209.815H621.978V262.141H674.304" stroke="#3F3F3F" stroke-width="3"/>
<circle cx="148.898" cy="493.898" r="21.102" fill="#3F3F3F"/>
<circle cx="144.102" cy="489.102" r="19.602" stroke="#3F3F3F" stroke-width="3"/>
<circle cx="144.102" cy="489.102" r="10.9694" stroke="#3F3F3F" stroke-width="3"/>
<mask id="path-10-inside-1" fill="white">
<path fill-rule="evenodd" clip-rule="evenodd" d="M241.034 50.4413L229.221 62.2542L243.618 76.6514L229.221 91.0483L241.034 102.861L255.431 88.4643L269.828 102.861L281.641 91.0483L267.244 76.6514L281.641 62.2542L269.828 50.4413L255.431 64.8384L241.034 50.4413Z"/>
</mask>
<path fill-rule="evenodd" clip-rule="evenodd" d="M241.034 50.4413L229.221 62.2542L243.618 76.6514L229.221 91.0483L241.034 102.861L255.431 88.4643L269.828 102.861L281.641 91.0483L267.244 76.6514L281.641 62.2542L269.828 50.4413L255.431 64.8384L241.034 50.4413Z" fill="#3F3F3F"/>
<path d="M229.221 62.2542L227.806 60.84L226.392 62.2542L227.806 63.6684L229.221 62.2542ZM241.034 50.4413L242.448 49.0271L241.034 47.6129L239.619 49.0271L241.034 50.4413ZM243.618 76.6514L245.032 78.0656L246.446 76.6514L245.032 75.2371L243.618 76.6514ZM229.221 91.0483L227.807 89.6341L226.392 91.0483L227.807 92.4625L229.221 91.0483ZM241.034 102.861L239.62 104.275L241.034 105.69L242.448 104.275L241.034 102.861ZM255.431 88.4643L256.845 87.0501L255.431 85.6359L254.017 87.0501L255.431 88.4643ZM269.828 102.861L268.413 104.275L269.828 105.69L271.242 104.275L269.828 102.861ZM281.641 91.0483L283.055 92.4625L284.469 91.0483L283.055 89.634L281.641 91.0483ZM267.244 76.6514L265.83 75.2371L264.415 76.6514L265.83 78.0656L267.244 76.6514ZM281.641 62.2542L283.055 63.6684L284.469 62.2542L283.055 60.84L281.641 62.2542ZM269.828 50.4413L271.242 49.0271L269.828 47.6129L268.414 49.0271L269.828 50.4413ZM255.431 64.8384L254.017 66.2526L255.431 67.6668L256.845 66.2526L255.431 64.8384ZM230.635 63.6684L242.448 51.8555L239.619 49.0271L227.806 60.84L230.635 63.6684ZM245.032 75.2371L230.635 60.84L227.806 63.6684L242.204 78.0656L245.032 75.2371ZM230.635 92.4625L245.032 78.0656L242.204 75.2371L227.807 89.6341L230.635 92.4625ZM242.448 101.447L230.635 89.6341L227.807 92.4625L239.62 104.275L242.448 101.447ZM254.017 87.0501L239.62 101.447L242.448 104.275L256.845 89.8785L254.017 87.0501ZM271.242 101.447L256.845 87.0501L254.017 89.8785L268.413 104.275L271.242 101.447ZM280.226 89.634L268.413 101.447L271.242 104.275L283.055 92.4625L280.226 89.634ZM265.83 78.0656L280.226 92.4625L283.055 89.634L268.658 75.2371L265.83 78.0656ZM280.227 60.84L265.83 75.2371L268.658 78.0656L283.055 63.6684L280.227 60.84ZM268.414 51.8555L280.227 63.6684L283.055 60.84L271.242 49.0271L268.414 51.8555ZM256.845 66.2526L271.242 51.8555L268.414 49.0271L254.017 63.4242L256.845 66.2526ZM239.619 51.8555L254.017 66.2526L256.845 63.4242L242.448 49.0271L239.619 51.8555Z" fill="#3F3F3F" mask="url(#path-10-inside-1)"/>
<mask id="path-12-inside-2" fill="white">
<path fill-rule="evenodd" clip-rule="evenodd" d="M235.813 40L224 51.8129L238.397 66.21L224 80.607L235.813 92.4199L250.21 78.0229L264.607 92.4199L276.42 80.607L262.023 66.21L276.42 51.813L264.607 40L250.21 54.397L235.813 40Z"/>
</mask>
<path d="M224 51.8129L222.586 50.3987L221.172 51.8129L222.586 53.2272L224 51.8129ZM235.813 40L237.227 38.5858L235.813 37.1716L234.399 38.5858L235.813 40ZM238.397 66.21L239.811 67.6242L241.225 66.21L239.811 64.7958L238.397 66.21ZM224 80.607L222.586 79.1928L221.172 80.607L222.586 82.0212L224 80.607ZM235.813 92.4199L234.399 93.8341L235.813 95.2483L237.227 93.8341L235.813 92.4199ZM250.21 78.0229L251.624 76.6087L250.21 75.1945L248.796 76.6087L250.21 78.0229ZM264.607 92.4199L263.193 93.8341L264.607 95.2483L266.021 93.8341L264.607 92.4199ZM276.42 80.607L277.834 82.0212L279.248 80.607L277.834 79.1928L276.42 80.607ZM262.023 66.21L260.609 64.7958L259.194 66.21L260.609 67.6242L262.023 66.21ZM276.42 51.813L277.834 53.2272L279.248 51.813L277.834 50.3987L276.42 51.813ZM264.607 40L266.021 38.5858L264.607 37.1716L263.193 38.5858L264.607 40ZM250.21 54.397L248.796 55.8113L250.21 57.2255L251.624 55.8113L250.21 54.397ZM225.414 53.2272L237.227 41.4142L234.399 38.5858L222.586 50.3987L225.414 53.2272ZM239.811 64.7958L225.414 50.3987L222.586 53.2272L236.983 67.6242L239.811 64.7958ZM225.414 82.0212L239.811 67.6242L236.983 64.7958L222.586 79.1928L225.414 82.0212ZM237.227 91.0057L225.414 79.1928L222.586 82.0212L234.399 93.8341L237.227 91.0057ZM248.796 76.6087L234.399 91.0057L237.227 93.8341L251.624 79.4371L248.796 76.6087ZM266.021 91.0057L251.624 76.6087L248.796 79.4371L263.193 93.8341L266.021 91.0057ZM275.006 79.1928L263.193 91.0057L266.021 93.8341L277.834 82.0212L275.006 79.1928ZM260.609 67.6242L275.006 82.0212L277.834 79.1928L263.437 64.7958L260.609 67.6242ZM275.006 50.3987L260.609 64.7958L263.437 67.6242L277.834 53.2272L275.006 50.3987ZM263.193 41.4142L275.006 53.2272L277.834 50.3987L266.021 38.5858L263.193 41.4142ZM251.624 55.8113L266.021 41.4142L263.193 38.5858L248.796 52.9828L251.624 55.8113ZM234.399 41.4142L248.796 55.8113L251.624 52.9828L237.227 38.5858L234.399 41.4142Z" fill="#3F3F3F" mask="url(#path-12-inside-2)"/>
<path d="M655.696 214.457L613.924 238.573L613.924 190.34L655.696 214.457Z" fill="#3F3F3F"/>
<path d="M620.728 182.329L658 203.848L620.728 225.367L620.728 182.329Z" stroke="#3F3F3F" stroke-width="3"/>
<circle cx="77.1222" cy="310.122" r="31.8776" fill="url(#paint0_linear)"/>
<circle cx="69.8775" cy="302.878" r="30.3776" stroke="#9631CD" stroke-width="3"/>
<circle cx="69.8777" cy="302.878" r="17.3367" stroke="#9631CD" stroke-width="3"/>
<path fill-rule="evenodd" clip-rule="evenodd" d="M784.591 469.717L759.262 444.388L728.392 475.257L697.523 444.388L672.194 469.717L703.063 500.586L672.194 531.456L697.523 556.785L728.392 525.915L759.262 556.785L784.591 531.456L753.721 500.586L784.591 469.717Z" fill="url(#paint1_linear)"/>
<mask id="path-20-inside-3" fill="white">
<path fill-rule="evenodd" clip-rule="evenodd" d="M773.397 447.329L748.068 422L717.198 452.87L686.329 422L661 447.329L691.87 478.198L661 509.068L686.329 534.397L717.198 503.527L748.068 534.397L773.397 509.068L742.527 478.198L773.397 447.329Z"/>
</mask>
<path d="M748.068 422L750.189 419.879L748.068 417.757L745.947 419.879L748.068 422ZM773.397 447.329L775.518 449.45L777.64 447.329L775.518 445.208L773.397 447.329ZM717.198 452.87L715.077 454.991L717.198 457.112L719.32 454.991L717.198 452.87ZM686.329 422L688.45 419.879L686.329 417.757L684.208 419.879L686.329 422ZM661 447.329L658.879 445.208L656.757 447.329L658.879 449.45L661 447.329ZM691.87 478.198L693.991 480.32L696.112 478.198L693.991 476.077L691.87 478.198ZM661 509.068L658.879 506.947L656.757 509.068L658.879 511.189L661 509.068ZM686.329 534.397L684.208 536.518L686.329 538.64L688.45 536.518L686.329 534.397ZM717.198 503.527L719.32 501.406L717.198 499.285L715.077 501.406L717.198 503.527ZM748.068 534.397L745.947 536.518L748.068 538.64L750.189 536.518L748.068 534.397ZM773.397 509.068L775.518 511.189L777.64 509.068L775.518 506.947L773.397 509.068ZM742.527 478.198L740.406 476.077L738.285 478.198L740.406 480.32L742.527 478.198ZM745.947 424.121L771.276 449.45L775.518 445.208L750.189 419.879L745.947 424.121ZM719.32 454.991L750.189 424.121L745.947 419.879L715.077 450.748L719.32 454.991ZM684.208 424.121L715.077 454.991L719.32 450.748L688.45 419.879L684.208 424.121ZM663.121 449.45L688.45 424.121L684.208 419.879L658.879 445.208L663.121 449.45ZM693.991 476.077L663.121 445.208L658.879 449.45L689.748 480.32L693.991 476.077ZM663.121 511.189L693.991 480.32L689.748 476.077L658.879 506.947L663.121 511.189ZM688.45 532.276L663.121 506.947L658.879 511.189L684.208 536.518L688.45 532.276ZM715.077 501.406L684.208 532.276L688.45 536.518L719.32 505.649L715.077 501.406ZM750.189 532.276L719.32 501.406L715.077 505.649L745.947 536.518L750.189 532.276ZM771.276 506.947L745.947 532.276L750.189 536.518L775.518 511.189L771.276 506.947ZM740.406 480.32L771.276 511.189L775.518 506.947L744.649 476.077L740.406 480.32ZM771.276 445.208L740.406 476.077L744.649 480.32L775.518 449.45L771.276 445.208Z" fill="#9631CD" mask="url(#path-20-inside-3)"/>
<path d="M561.391 75.4131L493.598 114.554L493.598 36.2725L561.391 75.4131Z" fill="url(#paint2_linear)"/>
<path d="M503.707 21.6531L567 58.1957L503.707 94.7382L503.707 21.6531Z" stroke="#9631CD" stroke-width="3"/>
<rect x="253.727" y="355.462" width="108.003" height="91.6657" fill="#5B5B5B" stroke="black" stroke-width="2"/>
<rect x="1" y="-1" width="273.552" height="20.8719" transform="matrix(1 0 0 -1 169.953 469)" fill="#5B5B5B" stroke="black" stroke-width="2"/>
<rect x="283.134" y="355.462" width="49.1894" height="66.6156" fill="#252525" stroke="black" stroke-width="2"/>
<rect x="86" y="81" width="442.368" height="294.245" rx="2" fill="#5B5B5B" stroke="black" stroke-width="2"/>
<rect x="95.8022" y="90.8022" width="422.763" height="274.641" rx="2" fill="#252525" stroke="black" stroke-width="2"/>
<rect x="148.17" y="125.941" width="318.028" height="221.095" rx="3" fill="#2E2E2E"/>
<rect x="159.062" y="136.833" width="194.955" height="136.142" rx="3" fill="#5E5E5E"/>
<rect x="148" y="103" width="318" height="10" rx="3" fill="#313131"/>
<rect x="159.062" y="283.866" width="32.6741" height="32.6741" rx="3" fill="#5E5E5E"/>
<rect x="316.986" y="283.866" width="10.8914" height="10.8914" rx="3" fill="#5E5E5E"/>
<rect x="333.323" y="283.866" width="10.8914" height="10.8914" rx="3" fill="#5E5E5E"/>
<rect x="196.092" y="286.045" width="72.9721" height="3.26741" rx="1.6337" fill="#5E5E5E"/>
<rect x="196.092" y="300.203" width="39.2089" height="3.26741" rx="1.6337" fill="#5E5E5E"/>
<rect x="363.819" y="136.833" width="91.4875" height="199.312" rx="3" fill="#252525"/>
<rect x="369.265" y="142.279" width="10.8914" height="10.8914" rx="3" fill="#EB5757"/>
<rect x="385.602" y="142.279" width="58.8134" height="3.26741" rx="1.6337" fill="#5E5E5E"/>
<rect x="385.602" y="169.507" width="49.0111" height="3.26741" rx="1.6337" fill="#5E5E5E"/>
<rect x="385.602" y="196.735" width="49.0111" height="3.26741" rx="1.6337" fill="#5E5E5E"/>
<rect x="385.602" y="223.964" width="25.0501" height="3.26741" rx="1.6337" fill="#5E5E5E"/>
<rect x="385.602" y="251.192" width="25.0501" height="3.26741" rx="1.6337" fill="#5E5E5E"/>
<rect x="385.602" y="278.421" width="40.298" height="3.26741" rx="1.6337" fill="#5E5E5E"/>
<rect x="385.602" y="150.992" width="38.1198" height="3.26741" rx="1.6337" fill="#5E5E5E"/>
<rect x="385.602" y="178.22" width="59.9025" height="3.26741" rx="1.6337" fill="#5E5E5E"/>
<rect x="385.602" y="205.448" width="11.9805" height="3.26741" rx="1.6337" fill="#5E5E5E"/>
<rect x="385.602" y="232.677" width="33.7632" height="3.26741" rx="1.6337" fill="#5E5E5E"/>
<rect x="385.602" y="259.905" width="56.6351" height="3.26741" rx="1.6337" fill="#5E5E5E"/>
<rect x="385.602" y="287.134" width="33.7632" height="3.26741" rx="1.6337" fill="#5E5E5E"/>
<rect x="369.265" y="169.507" width="10.8914" height="10.8914" rx="3" fill="#F2C94C"/>
<rect x="369.265" y="196.735" width="10.8914" height="10.8914" rx="3" fill="#27AE60"/>
<rect x="369.265" y="223.964" width="10.8914" height="10.8914" rx="3" fill="#2D9CDB"/>
<rect x="369.265" y="251.192" width="10.8914" height="10.8914" rx="3" fill="#EB5757"/>
<rect x="369.265" y="278.421" width="10.8914" height="10.8914" rx="3" fill="#E3833D"/>
<rect x="369.265" y="323.075" width="80.5961" height="7.62396" rx="3" fill="#5E5E5E"/>
<path d="M387 288C387 280.268 393.268 274 401 274H698C705.732 274 712 280.268 712 288V483H387V288Z" fill="#5B5B5B" stroke="black" stroke-width="2"/>
<path d="M400 287H699V470H400V287Z" fill="#252525" stroke="black" stroke-width="2"/>
<rect x="430" y="299" width="240" height="160" rx="3" fill="#2E2E2E"/>
<rect x="530" y="398" width="8" height="8" rx="3" fill="#5E5E5E"/>
<rect x="541" y="398" width="8" height="8" rx="3" fill="#5E5E5E"/>
<rect x="440" y="399" width="24" height="24" rx="3" fill="#5E5E5E"/>
<rect x="469" y="401" width="37" height="3" rx="1.5" fill="#5E5E5E"/>
<rect x="469" y="411" width="25" height="3" rx="1.5" fill="#5E5E5E"/>
<rect x="440" y="309" width="116" height="81" rx="3" fill="#5E5E5E"/>
<rect x="570" y="309" width="91" height="140" rx="3" fill="#252525"/>
<rect x="575.446" y="314.446" width="10.8914" height="10.8914" rx="3" fill="#EB5757"/>
<rect x="591.783" y="314.446" width="58.8134" height="3.26741" rx="1.6337" fill="#5E5E5E"/>
<rect x="591.783" y="341.674" width="49.0111" height="3.26741" rx="1.6337" fill="#5E5E5E"/>
<rect x="591.783" y="368.903" width="49.0111" height="3.26741" rx="1.6337" fill="#5E5E5E"/>
<rect x="591.783" y="396.131" width="25.0501" height="3.26741" rx="1.6337" fill="#5E5E5E"/>
<rect x="591.783" y="323.159" width="38.1198" height="3.26741" rx="1.6337" fill="#5E5E5E"/>
<rect x="591.783" y="350.387" width="59.9025" height="3.26741" rx="1.6337" fill="#5E5E5E"/>
<rect x="591.783" y="377.616" width="11.9805" height="3.26741" rx="1.6337" fill="#5E5E5E"/>
<rect x="591.783" y="404.844" width="33.7632" height="3.26741" rx="1.6337" fill="#5E5E5E"/>
<rect x="575.446" y="341.674" width="10.8914" height="10.8914" rx="3" fill="#F2C94C"/>
<rect x="575.446" y="368.903" width="10.8914" height="10.8914" rx="3" fill="#27AE60"/>
<rect x="575.446" y="396.131" width="10.8914" height="10.8914" rx="3" fill="#2D9CDB"/>
<rect x="575.446" y="436" width="80.5961" height="7.62396" rx="3" fill="#5E5E5E"/>
<path d="M364 485H736V493C736 497.971 731.971 502 727 502H373C368.029 502 364 497.971 364 493V485Z" fill="#5B5B5B" stroke="black" stroke-width="2"/>
<path d="M579.481 482.5C579.226 485.856 576.422 488.5 573 488.5H527C523.578 488.5 520.774 485.856 520.519 482.5H579.481Z" fill="#5B5B5B" stroke="black"/>
<rect x="16.5" y="319.5" width="95" height="180" rx="4.5" fill="#5B5B5B" stroke="black"/>
<rect x="20.7705" y="329.158" width="86.8061" height="160.684" rx="5" fill="#252525"/>
<rect x="24.4644" y="332.852" width="79.4184" height="153.296" rx="3" fill="#2E2E2E"/>
<rect x="27.2349" y="391.954" width="73.8775" height="91.4235" rx="3" fill="#252525"/>
<rect x="31.8521" y="396.571" width="10.0578" height="10.0578" rx="3" fill="#EB5757"/>
<rect x="31.8521" y="413.194" width="10.0578" height="10.0578" rx="3" fill="#F2C94C"/>
<rect x="31.8521" y="429.816" width="10.0578" height="10.0578" rx="3" fill="#27AE60"/>
<rect x="31.8521" y="446.439" width="10.0578" height="10.0578" rx="3" fill="#2D9CDB"/>
<rect x="31.8521" y="463.061" width="10.0578" height="10.0578" rx="3" fill="#E3833D"/>
<rect x="45.7041" y="396.571" width="44.3265" height="2.77041" rx="1.3852" fill="#5E5E5E"/>
<rect x="45.7041" y="413.194" width="48.9439" height="2.77041" rx="1.3852" fill="#5E5E5E"/>
<rect x="45.7041" y="429.816" width="22.1633" height="2.77041" rx="1.3852" fill="#5E5E5E"/>
<rect x="45.7041" y="446.439" width="12.9286" height="2.77041" rx="1.3852" fill="#5E5E5E"/>
<rect x="45.7041" y="463.061" width="20.3163" height="2.77041" rx="1.3852" fill="#5E5E5E"/>
<rect x="45.7041" y="404.883" width="28.6276" height="2.77041" rx="1.3852" fill="#5E5E5E"/>
<rect x="45.7041" y="421.505" width="11.0816" height="2.77041" rx="1.3852" fill="#5E5E5E"/>
<rect x="45.7041" y="438.128" width="32.3214" height="2.77041" rx="1.3852" fill="#5E5E5E"/>
<rect x="45.7041" y="454.75" width="41.5561" height="2.77041" rx="1.3852" fill="#5E5E5E"/>
<rect x="45.7041" y="471.372" width="28.6276" height="2.77041" rx="1.3852" fill="#5E5E5E"/>
<rect x="27.2349" y="335.622" width="73.8775" height="51.7143" rx="3" fill="#5E5E5E"/>
<rect x="49.3979" y="323.617" width="29.551" height="2.77041" rx="1.3852" fill="#252525"/>
<rect x="80.7959" y="323.617" width="2.77041" height="2.77041" rx="1.3852" fill="#252525"/>
<rect x="82" y="24" width="32" height="32" fill="#3F3F3F"/>
<rect x="90.5332" y="32.5333" width="14.9333" height="14.9333" fill="#2E2E2E"/>
<rect x="668" y="97" width="49" height="49" fill="#3F3F3F"/>
<rect x="681.066" y="110.066" width="22.8667" height="22.8667" fill="#2E2E2E"/>
<defs>
<linearGradient id="paint0_linear" x1="77.1222" y1="290.106" x2="54.5842" y2="346.351" gradientUnits="userSpaceOnUse">
<stop stop-color="#E3833E"/>
<stop offset="1" stop-color="#942FD1"/>
</linearGradient>
<linearGradient id="paint1_linear" x1="728.392" y1="465.299" x2="688.659" y2="564.455" gradientUnits="userSpaceOnUse">
<stop stop-color="#E3833E"/>
<stop offset="1" stop-color="#942FD1"/>
</linearGradient>
<linearGradient id="paint2_linear" x1="544.574" y1="75.4131" x2="464.831" y2="43.4589" gradientUnits="userSpaceOnUse">
<stop stop-color="#E3833E"/>
<stop offset="1" stop-color="#942FD1"/>
</linearGradient>
</defs>
</svg>
