<svg width="728" height="550" viewBox="0 0 728 550" fill="none" xmlns="http://www.w3.org/2000/svg">
<path d="M105 98.5L26.25 143.966L26.25 53.0337L105 98.5Z" fill="url(#paint0_linear)"/>
<path d="M37.75 35.6317L112 78.5L37.75 121.368L37.75 35.6317Z" stroke="#9631CD" stroke-width="3"/>
<rect x="528" y="442" width="74" height="74" fill="url(#paint1_linear)"/>
<rect x="547.733" y="461.733" width="34.5333" height="34.5333" fill="#9631CD"/>
<circle cx="110" cy="487" r="44" fill="url(#paint2_linear)"/>
<circle cx="100" cy="477" r="42.5" stroke="#9631CD" stroke-width="3"/>
<circle cx="100" cy="477" r="24.5" stroke="#9631CD" stroke-width="3"/>
<path d="M232 29.163H284.326V81.4889H336.652V133.815H388.978V186.141H441.304" stroke="#9631CD" stroke-width="3"/>
<path d="M257 364.163H309.326V416.489H361.652V468.815H413.978V521.141H466.304" stroke="#9631CD" stroke-width="3"/>
<line x1="593.061" y1="128.939" x2="726.845" y2="262.724" stroke="#9631CD" stroke-width="3"/>
<line x1="34.0607" y1="326.939" x2="167.845" y2="460.724" stroke="#9631CD" stroke-width="3"/>
<line x1="544.061" y1="373.939" x2="677.845" y2="507.724" stroke="#9631CD" stroke-width="3"/>
<path fill-rule="evenodd" clip-rule="evenodd" d="M689.409 59.6274L666.782 37L639.205 64.5772L611.627 37L589 59.6274L616.577 87.2046L589 114.782L611.627 137.409L639.205 109.832L666.782 137.409L689.409 114.782L661.832 87.2046L689.409 59.6274Z" fill="url(#paint3_linear)"/>
<mask id="path-14-inside-1" fill="white">
<path fill-rule="evenodd" clip-rule="evenodd" d="M679.409 39.6274L656.782 17L629.205 44.5772L601.627 17L579 39.6274L606.577 67.2046L579 94.7817L601.627 117.409L629.205 89.832L656.782 117.409L679.409 94.7818L651.832 67.2046L679.409 39.6274Z"/>
</mask>
<path d="M656.782 17L658.903 14.8787L656.782 12.7574L654.66 14.8787L656.782 17ZM679.409 39.6274L681.53 41.7487L683.652 39.6274L681.53 37.5061L679.409 39.6274ZM629.205 44.5772L627.083 46.6985L629.205 48.8198L631.326 46.6985L629.205 44.5772ZM601.627 17L603.749 14.8787L601.627 12.7574L599.506 14.8787L601.627 17ZM579 39.6274L576.879 37.5061L574.757 39.6274L576.879 41.7488L579 39.6274ZM606.577 67.2046L608.698 69.3259L610.82 67.2046L608.698 65.0833L606.577 67.2046ZM579 94.7817L576.879 92.6604L574.757 94.7817L576.879 96.9031L579 94.7817ZM601.627 117.409L599.506 119.53L601.627 121.652L603.749 119.53L601.627 117.409ZM629.205 89.832L631.326 87.7107L629.205 85.5894L627.083 87.7107L629.205 89.832ZM656.782 117.409L654.66 119.531L656.782 121.652L658.903 119.531L656.782 117.409ZM679.409 94.7818L681.53 96.9031L683.652 94.7818L681.53 92.6604L679.409 94.7818ZM651.832 67.2046L649.711 65.0833L647.589 67.2046L649.711 69.3259L651.832 67.2046ZM654.66 19.1213L677.288 41.7487L681.53 37.5061L658.903 14.8787L654.66 19.1213ZM631.326 46.6985L658.903 19.1213L654.66 14.8787L627.083 42.4559L631.326 46.6985ZM599.506 19.1213L627.083 46.6985L631.326 42.4559L603.749 14.8787L599.506 19.1213ZM581.121 41.7488L603.749 19.1213L599.506 14.8787L576.879 37.5061L581.121 41.7488ZM608.698 65.0833L581.121 37.5061L576.879 41.7488L604.456 69.3259L608.698 65.0833ZM581.121 96.9031L608.698 69.3259L604.456 65.0833L576.879 92.6604L581.121 96.9031ZM603.749 115.288L581.121 92.6604L576.879 96.9031L599.506 119.53L603.749 115.288ZM627.083 87.7107L599.506 115.288L603.749 119.53L631.326 91.9533L627.083 87.7107ZM658.903 115.288L631.326 87.7107L627.083 91.9533L654.66 119.531L658.903 115.288ZM677.288 92.6604L654.66 115.288L658.903 119.531L681.53 96.9031L677.288 92.6604ZM649.711 69.3259L677.288 96.9031L681.53 92.6604L653.953 65.0833L649.711 69.3259ZM677.288 37.5061L649.711 65.0833L653.953 69.3259L681.53 41.7487L677.288 37.5061Z" fill="#9631CD" mask="url(#path-14-inside-1)"/>
<rect x="87.9966" y="109.997" width="587.8" height="369.003" stroke="white" stroke-width="2"/>
<mask id="mask0" mask-type="alpha" maskUnits="userSpaceOnUse" x="67" y="89" width="590" height="372">
<rect x="67" y="89" width="589.8" height="371.003" fill="#C4C4C4"/>
</mask>
<g mask="url(#mask0)">
<rect width="589.8" height="38.0516" transform="matrix(1 0 0 -1 67 460.003)" fill="#252525"/>
<path d="M130.542 440.856L121.58 446.03L121.58 435.682L130.542 440.856Z" fill="#9631CD"/>
<rect x="132.036" y="434.881" width="1.49373" height="11.9498" fill="#9631CD"/>
<path d="M605.431 437.172V431.465H611.139" stroke="#B1B1B1"/>
<path d="M622.554 437.172V431.465H616.846" stroke="#B1B1B1"/>
<path d="M622.554 442.88V448.588H616.846" stroke="#B1B1B1"/>
<path d="M605.43 442.88V448.588H611.138" stroke="#B1B1B1"/>
<path d="M105.052 440.977L87.9285 450.864L87.9285 431.091L105.052 440.977Z" fill="#9631CD"/>
<rect opacity="0.8" x="184.96" y="439.075" width="388.126" height="3.80516" fill="#4B4B4B"/>
<circle cx="238.232" cy="440.978" r="3.30516" fill="#9631CD" stroke="#676767"/>
</g>
<defs>
<linearGradient id="paint0_linear" x1="85.4651" y1="98.5" x2="-7.16541" y2="61.3815" gradientUnits="userSpaceOnUse">
<stop stop-color="#E3833E"/>
<stop offset="1" stop-color="#942FD1"/>
</linearGradient>
<linearGradient id="paint1_linear" x1="565" y1="455.767" x2="538.84" y2="521.05" gradientUnits="userSpaceOnUse">
<stop stop-color="#E3833E"/>
<stop offset="1" stop-color="#942FD1"/>
</linearGradient>
<linearGradient id="paint2_linear" x1="110" y1="459.372" x2="78.8912" y2="537.005" gradientUnits="userSpaceOnUse">
<stop stop-color="#E3833E"/>
<stop offset="1" stop-color="#942FD1"/>
</linearGradient>
<linearGradient id="paint3_linear" x1="639.205" y1="55.6808" x2="603.709" y2="144.261" gradientUnits="userSpaceOnUse">
<stop stop-color="#E3833E"/>
<stop offset="1" stop-color="#942FD1"/>
</linearGradient>
</defs>
</svg>
