<svg width="20" height="20" viewBox="0 0 20 20" fill="none" xmlns="http://www.w3.org/2000/svg">
<path d="M20 10C20 15.5228 15.5228 20 10 20C4.47715 20 0 15.5228 0 10C0 4.47715 4.47715 0 10 0C15.5228 0 20 4.47715 20 10Z" fill="#EB5757"/>
<path d="M9.34382 11.906H10.4078L10.6738 5.19995H9.09182L9.34382 11.906ZM9.88982 15.084C10.4078 15.084 10.7858 14.678 10.7858 14.188C10.7858 13.684 10.4078 13.292 9.88982 13.292C9.35782 13.292 8.96582 13.684 8.96582 14.188C8.96582 14.678 9.35782 15.084 9.88982 15.084Z" fill="white"/>
</svg>
