<svg width="139" height="263" viewBox="0 0 139 263" fill="none" xmlns="http://www.w3.org/2000/svg">
<rect x="0.5" y="0.5" width="138" height="261.073" rx="4.5" fill="#5B5B5B" stroke="black"/>
<rect x="6.90723" y="14.7081" width="125.688" height="232.657" rx="5" fill="#252525"/>
<rect x="12.2554" y="20.0564" width="114.991" height="221.96" rx="3" fill="#2E2E2E"/>
<rect x="16.2666" y="105.631" width="106.969" height="132.374" rx="3" fill="#252525"/>
<rect x="22.9526" y="112.317" width="14.5629" height="14.5629" rx="3" fill="#EB5757"/>
<rect x="22.9526" y="136.385" width="14.5629" height="14.5629" rx="3" fill="#F2C94C"/>
<rect x="22.9526" y="160.453" width="14.5629" height="14.5629" rx="3" fill="#27AE60"/>
<rect x="22.9526" y="184.521" width="14.5629" height="14.5629" rx="3" fill="#2D9CDB"/>
<rect x="22.9526" y="208.589" width="14.5629" height="14.5629" rx="3" fill="#E3833D"/>
<rect x="43.0093" y="112.317" width="64.1811" height="4.01132" rx="2.00566" fill="#5E5E5E"/>
<rect x="43.0093" y="136.385" width="70.8667" height="4.01132" rx="2.00566" fill="#5E5E5E"/>
<rect x="43.0093" y="160.453" width="32.0906" height="4.01132" rx="2.00566" fill="#5E5E5E"/>
<rect x="43.0093" y="184.521" width="18.7195" height="4.01132" rx="2.00566" fill="#5E5E5E"/>
<rect x="43.0093" y="208.589" width="29.4163" height="4.01132" rx="2.00566" fill="#5E5E5E"/>
<rect x="43.0093" y="124.351" width="41.4503" height="4.01132" rx="2.00566" fill="#5E5E5E"/>
<rect x="43.0093" y="148.419" width="16.0453" height="4.01132" rx="2.00566" fill="#5E5E5E"/>
<rect x="43.0093" y="172.486" width="46.7987" height="4.01132" rx="2.00566" fill="#5E5E5E"/>
<rect x="43.0093" y="196.555" width="60.1698" height="4.01132" rx="2.00566" fill="#5E5E5E"/>
<rect x="43.0093" y="220.623" width="41.4503" height="4.01132" rx="2.00566" fill="#5E5E5E"/>
<rect x="16.2666" y="24.0681" width="106.969" height="74.878" rx="3" fill="#5E5E5E"/>
<rect x="48.3574" y="6.68567" width="42.7874" height="4.01132" rx="2.00566" fill="#252525"/>
<rect x="93.8193" y="6.68567" width="4.01132" height="4.01132" rx="2.00566" fill="#252525"/>
</svg>
