<svg width="332" height="292" viewBox="0 0 332 292" fill="none" xmlns="http://www.w3.org/2000/svg">
<rect x="126.259" y="205.969" width="80.1504" height="67.9499" fill="#5B5B5B" stroke="black" stroke-width="2"/>
<rect x="1" y="-1" width="203.783" height="15.0808" transform="matrix(1 0 0 -1 63.4429 290)" fill="#5B5B5B" stroke="black" stroke-width="2"/>
<rect x="148.22" y="205.969" width="36.2284" height="49.2423" fill="#252525" stroke="black" stroke-width="2"/>
<rect x="1" y="1" width="329.855" height="219.237" rx="2" fill="#5B5B5B" stroke="black" stroke-width="2"/>
<rect x="8.32031" y="8.32056" width="315.214" height="204.596" rx="2" fill="#252525" stroke="black" stroke-width="2"/>
<rect x="47.1753" y="34.3092" width="237.504" height="165.114" rx="3" fill="#2E2E2E"/>
<rect x="55.3096" y="42.443" width="145.593" height="101.671" rx="3" fill="#5E5E5E"/>
<rect x="47.0488" y="17.1765" width="237.483" height="7.46803" rx="3" fill="#313131"/>
<rect x="55.3096" y="152.248" width="24.4011" height="24.4011" rx="3" fill="#5E5E5E"/>
<rect x="173.248" y="152.248" width="8.1337" height="8.1337" rx="3" fill="#5E5E5E"/>
<rect x="185.449" y="152.248" width="8.1337" height="8.1337" rx="3" fill="#5E5E5E"/>
<rect x="82.9639" y="153.875" width="54.4958" height="2.44011" rx="1.22006" fill="#5E5E5E"/>
<rect x="82.9639" y="164.448" width="29.2813" height="2.44011" rx="1.22006" fill="#5E5E5E"/>
<rect x="208.223" y="42.443" width="68.3231" height="148.847" rx="3" fill="#252525"/>
<rect x="212.29" y="46.5101" width="8.1337" height="8.1337" rx="3" fill="#EB5757"/>
<rect x="224.49" y="46.5101" width="43.922" height="2.44011" rx="1.22006" fill="#5E5E5E"/>
<rect x="224.49" y="66.8442" width="36.6017" height="2.44011" rx="1.22006" fill="#5E5E5E"/>
<rect x="224.49" y="87.1785" width="36.6017" height="2.44011" rx="1.22006" fill="#5E5E5E"/>
<rect x="224.49" y="107.513" width="18.7075" height="2.44011" rx="1.22006" fill="#5E5E5E"/>
<rect x="224.49" y="127.847" width="18.7075" height="2.44011" rx="1.22006" fill="#5E5E5E"/>
<rect x="224.49" y="148.181" width="30.0947" height="2.44011" rx="1.22006" fill="#5E5E5E"/>
<rect x="224.49" y="53.0171" width="28.468" height="2.44011" rx="1.22006" fill="#5E5E5E"/>
<rect x="224.49" y="73.3512" width="44.7354" height="2.44011" rx="1.22006" fill="#5E5E5E"/>
<rect x="224.49" y="93.6855" width="8.94707" height="2.44011" rx="1.22006" fill="#5E5E5E"/>
<rect x="224.49" y="114.02" width="25.2145" height="2.44011" rx="1.22006" fill="#5E5E5E"/>
<rect x="224.49" y="134.354" width="42.2953" height="2.44011" rx="1.22006" fill="#5E5E5E"/>
<rect x="224.49" y="154.688" width="25.2145" height="2.44011" rx="1.22006" fill="#5E5E5E"/>
<rect x="212.29" y="66.8442" width="8.1337" height="8.1337" rx="3" fill="#F2C94C"/>
<rect x="212.29" y="87.1785" width="8.1337" height="8.1337" rx="3" fill="#27AE60"/>
<rect x="212.29" y="107.513" width="8.1337" height="8.1337" rx="3" fill="#2D9CDB"/>
<rect x="212.29" y="127.847" width="8.1337" height="8.1337" rx="3" fill="#EB5757"/>
<rect x="212.29" y="148.181" width="8.1337" height="8.1337" rx="3" fill="#E3833D"/>
<rect x="212.29" y="181.53" width="60.1894" height="5.69359" rx="2.8468" fill="#5E5E5E"/>
</svg>
