<svg width="1183" height="1949" viewBox="0 0 1183 1949" fill="none" xmlns="http://www.w3.org/2000/svg">
<path d="M421 671.042H492.44V599.601H563.881V528.161H635.321V456.721H706.761" stroke="#3F3F3F" stroke-width="3"/>
<path d="M421 929.72H492.44V1001.16H563.881V1072.6H635.321V1144.04H706.761" stroke="#3F3F3F" stroke-width="3"/>
<path d="M421 1592.04H492.44V1520.6H563.881V1449.16H635.321V1377.72H706.761" stroke="#3F3F3F" stroke-width="3"/>
<mask id="path-4-inside-1" fill="white">
<path fill-rule="evenodd" clip-rule="evenodd" d="M221.411 987.47L199.398 965.457L172.569 992.285L145.741 965.457L123.728 987.47L150.556 1014.3L123.728 1041.13L145.741 1063.14L172.569 1036.31L199.397 1063.14L221.41 1041.13L194.582 1014.3L221.411 987.47Z"/>
</mask>
<path fill-rule="evenodd" clip-rule="evenodd" d="M221.411 987.47L199.398 965.457L172.569 992.285L145.741 965.457L123.728 987.47L150.556 1014.3L123.728 1041.13L145.741 1063.14L172.569 1036.31L199.397 1063.14L221.41 1041.13L194.582 1014.3L221.411 987.47Z" fill="#3F3F3F"/>
<path d="M199.398 965.457L200.812 964.043L199.398 962.628L197.984 964.043L199.398 965.457ZM221.411 987.47L222.825 988.884L224.239 987.47L222.825 986.055L221.411 987.47ZM172.569 992.285L171.155 993.699L172.569 995.114L173.983 993.699L172.569 992.285ZM145.741 965.457L147.155 964.043L145.741 962.629L144.327 964.043L145.741 965.457ZM123.728 987.47L122.314 986.056L120.9 987.47L122.314 988.884L123.728 987.47ZM150.556 1014.3L151.971 1015.71L153.385 1014.3L151.971 1012.88L150.556 1014.3ZM123.728 1041.13L122.314 1039.71L120.9 1041.13L122.314 1042.54L123.728 1041.13ZM145.741 1063.14L144.327 1064.55L145.741 1065.97L147.156 1064.55L145.741 1063.14ZM172.569 1036.31L173.983 1034.9L172.569 1033.48L171.155 1034.9L172.569 1036.31ZM199.397 1063.14L197.983 1064.55L199.397 1065.97L200.812 1064.55L199.397 1063.14ZM221.41 1041.13L222.825 1042.54L224.239 1041.13L222.825 1039.71L221.41 1041.13ZM194.582 1014.3L193.168 1012.88L191.754 1014.3L193.168 1015.71L194.582 1014.3ZM197.984 966.871L219.996 988.884L222.825 986.055L200.812 964.043L197.984 966.871ZM173.983 993.699L200.812 966.871L197.984 964.043L171.155 990.871L173.983 993.699ZM144.327 966.871L171.155 993.699L173.983 990.871L147.155 964.043L144.327 966.871ZM125.142 988.884L147.155 966.871L144.327 964.043L122.314 986.056L125.142 988.884ZM151.971 1012.88L125.142 986.056L122.314 988.884L149.142 1015.71L151.971 1012.88ZM125.143 1042.54L151.971 1015.71L149.142 1012.88L122.314 1039.71L125.143 1042.54ZM147.156 1061.72L125.143 1039.71L122.314 1042.54L144.327 1064.55L147.156 1061.72ZM171.155 1034.9L144.327 1061.72L147.156 1064.55L173.983 1037.73L171.155 1034.9ZM200.812 1061.73L173.983 1034.9L171.155 1037.73L197.983 1064.55L200.812 1061.73ZM219.996 1039.71L197.983 1061.73L200.812 1064.55L222.825 1042.54L219.996 1039.71ZM193.168 1015.71L219.996 1042.54L222.825 1039.71L195.996 1012.88L193.168 1015.71ZM219.996 986.055L193.168 1012.88L195.996 1015.71L222.825 988.884L219.996 986.055Z" fill="#3F3F3F" mask="url(#path-4-inside-1)"/>
<mask id="path-6-inside-2" fill="white">
<path fill-rule="evenodd" clip-rule="evenodd" d="M211.682 968.013L189.669 946L162.841 972.828L136.013 946L114 968.013L140.828 994.841L114 1021.67L136.013 1043.68L162.841 1016.85L189.669 1043.68L211.682 1021.67L184.854 994.841L211.682 968.013Z"/>
</mask>
<path d="M189.669 946L191.084 944.586L189.669 943.172L188.255 944.586L189.669 946ZM211.682 968.013L213.097 969.427L214.511 968.013L213.097 966.599L211.682 968.013ZM162.841 972.828L161.427 974.242L162.841 975.657L164.255 974.242L162.841 972.828ZM136.013 946L137.427 944.586L136.013 943.172L134.599 944.586L136.013 946ZM114 968.013L112.586 966.599L111.172 968.013L112.586 969.427L114 968.013ZM140.828 994.841L142.242 996.255L143.657 994.841L142.242 993.427L140.828 994.841ZM114 1021.67L112.586 1020.26L111.172 1021.67L112.586 1023.08L114 1021.67ZM136.013 1043.68L134.599 1045.1L136.013 1046.51L137.427 1045.1L136.013 1043.68ZM162.841 1016.85L164.255 1015.44L162.841 1014.03L161.427 1015.44L162.841 1016.85ZM189.669 1043.68L188.255 1045.1L189.669 1046.51L191.084 1045.1L189.669 1043.68ZM211.682 1021.67L213.097 1023.08L214.511 1021.67L213.097 1020.26L211.682 1021.67ZM184.854 994.841L183.44 993.427L182.026 994.841L183.44 996.255L184.854 994.841ZM188.255 947.414L210.268 969.427L213.097 966.599L191.084 944.586L188.255 947.414ZM164.255 974.242L191.084 947.414L188.255 944.586L161.427 971.414L164.255 974.242ZM134.599 947.414L161.427 974.242L164.255 971.414L137.427 944.586L134.599 947.414ZM115.414 969.427L137.427 947.414L134.599 944.586L112.586 966.599L115.414 969.427ZM142.242 993.427L115.414 966.599L112.586 969.427L139.414 996.255L142.242 993.427ZM115.414 1023.08L142.242 996.255L139.414 993.427L112.586 1020.26L115.414 1023.08ZM137.427 1042.27L115.414 1020.26L112.586 1023.08L134.599 1045.1L137.427 1042.27ZM161.427 1015.44L134.599 1042.27L137.427 1045.1L164.255 1018.27L161.427 1015.44ZM191.084 1042.27L164.255 1015.44L161.427 1018.27L188.255 1045.1L191.084 1042.27ZM210.268 1020.26L188.255 1042.27L191.084 1045.1L213.097 1023.08L210.268 1020.26ZM183.44 996.255L210.268 1023.08L213.097 1020.26L186.268 993.427L183.44 996.255ZM210.268 966.599L183.44 993.427L186.268 996.255L213.097 969.427L210.268 966.599Z" fill="#3F3F3F" mask="url(#path-6-inside-2)"/>
<mask id="path-8-inside-3" fill="white">
<path fill-rule="evenodd" clip-rule="evenodd" d="M948.411 1473.67L926.398 1495.68L899.569 1468.85L872.741 1495.68L850.728 1473.67L877.556 1446.84L850.728 1420.01L872.741 1398L899.569 1424.83L926.397 1398L948.41 1420.01L921.582 1446.84L948.411 1473.67Z"/>
</mask>
<path fill-rule="evenodd" clip-rule="evenodd" d="M948.411 1473.67L926.398 1495.68L899.569 1468.85L872.741 1495.68L850.728 1473.67L877.556 1446.84L850.728 1420.01L872.741 1398L899.569 1424.83L926.397 1398L948.41 1420.01L921.582 1446.84L948.411 1473.67Z" fill="#3F3F3F"/>
<path d="M926.398 1495.68L927.812 1497.1L926.398 1498.51L924.984 1497.1L926.398 1495.68ZM948.411 1473.67L949.825 1472.25L951.239 1473.67L949.825 1475.08L948.411 1473.67ZM899.569 1468.85L898.155 1467.44L899.569 1466.02L900.983 1467.44L899.569 1468.85ZM872.741 1495.68L874.155 1497.1L872.741 1498.51L871.327 1497.1L872.741 1495.68ZM850.728 1473.67L849.314 1475.08L847.9 1473.67L849.314 1472.25L850.728 1473.67ZM877.556 1446.84L878.971 1445.43L880.385 1446.84L878.971 1448.25L877.556 1446.84ZM850.728 1420.01L849.314 1421.43L847.9 1420.01L849.314 1418.6L850.728 1420.01ZM872.741 1398L871.327 1396.59L872.741 1395.17L874.156 1396.59L872.741 1398ZM899.569 1424.83L900.983 1426.24L899.569 1427.66L898.155 1426.24L899.569 1424.83ZM926.397 1398L924.983 1396.59L926.397 1395.17L927.812 1396.59L926.397 1398ZM948.41 1420.01L949.825 1418.6L951.239 1420.01L949.825 1421.43L948.41 1420.01ZM921.582 1446.84L920.168 1448.25L918.754 1446.84L920.168 1445.43L921.582 1446.84ZM924.984 1494.27L946.996 1472.25L949.825 1475.08L927.812 1497.1L924.984 1494.27ZM900.983 1467.44L927.812 1494.27L924.984 1497.1L898.155 1470.27L900.983 1467.44ZM871.327 1494.27L898.155 1467.44L900.983 1470.27L874.155 1497.1L871.327 1494.27ZM852.142 1472.25L874.155 1494.27L871.327 1497.1L849.314 1475.08L852.142 1472.25ZM878.971 1448.25L852.142 1475.08L849.314 1472.25L876.142 1445.43L878.971 1448.25ZM852.143 1418.6L878.971 1445.43L876.142 1448.25L849.314 1421.43L852.143 1418.6ZM874.156 1399.41L852.143 1421.43L849.314 1418.6L871.327 1396.59L874.156 1399.41ZM898.155 1426.24L871.327 1399.41L874.156 1396.59L900.983 1423.41L898.155 1426.24ZM927.812 1399.41L900.983 1426.24L898.155 1423.41L924.983 1396.59L927.812 1399.41ZM946.996 1421.43L924.983 1399.41L927.812 1396.59L949.825 1418.6L946.996 1421.43ZM920.168 1445.43L946.996 1418.6L949.825 1421.43L922.996 1448.25L920.168 1445.43ZM946.996 1475.08L920.168 1448.25L922.996 1445.43L949.825 1472.25L946.996 1475.08Z" fill="#3F3F3F" mask="url(#path-8-inside-3)"/>
<mask id="path-10-inside-4" fill="white">
<path fill-rule="evenodd" clip-rule="evenodd" d="M938.682 1493.13L916.669 1515.14L889.841 1488.31L863.013 1515.14L841 1493.13L867.828 1466.3L841 1439.47L863.013 1417.46L889.841 1444.28L916.669 1417.46L938.682 1439.47L911.854 1466.3L938.682 1493.13Z"/>
</mask>
<path d="M916.669 1515.14L918.084 1516.55L916.669 1517.97L915.255 1516.55L916.669 1515.14ZM938.682 1493.13L940.097 1491.71L941.511 1493.13L940.097 1494.54L938.682 1493.13ZM889.841 1488.31L888.427 1486.9L889.841 1485.48L891.255 1486.9L889.841 1488.31ZM863.013 1515.14L864.427 1516.55L863.013 1517.97L861.599 1516.55L863.013 1515.14ZM841 1493.13L839.586 1494.54L838.172 1493.13L839.586 1491.71L841 1493.13ZM867.828 1466.3L869.242 1464.88L870.657 1466.3L869.242 1467.71L867.828 1466.3ZM841 1439.47L839.586 1440.88L838.172 1439.47L839.586 1438.06L841 1439.47ZM863.013 1417.46L861.599 1416.04L863.013 1414.63L864.427 1416.04L863.013 1417.46ZM889.841 1444.28L891.255 1445.7L889.841 1447.11L888.427 1445.7L889.841 1444.28ZM916.669 1417.46L915.255 1416.04L916.669 1414.63L918.084 1416.04L916.669 1417.46ZM938.682 1439.47L940.097 1438.05L941.511 1439.47L940.097 1440.88L938.682 1439.47ZM911.854 1466.3L910.44 1467.71L909.026 1466.3L910.44 1464.88L911.854 1466.3ZM915.255 1513.72L937.268 1491.71L940.097 1494.54L918.084 1516.55L915.255 1513.72ZM891.255 1486.9L918.084 1513.72L915.255 1516.55L888.427 1489.72L891.255 1486.9ZM861.599 1513.72L888.427 1486.9L891.255 1489.72L864.427 1516.55L861.599 1513.72ZM842.414 1491.71L864.427 1513.72L861.599 1516.55L839.586 1494.54L842.414 1491.71ZM869.242 1467.71L842.414 1494.54L839.586 1491.71L866.414 1464.88L869.242 1467.71ZM842.414 1438.06L869.242 1464.88L866.414 1467.71L839.586 1440.88L842.414 1438.06ZM864.427 1418.87L842.414 1440.88L839.586 1438.06L861.599 1416.04L864.427 1418.87ZM888.427 1445.7L861.599 1418.87L864.427 1416.04L891.255 1442.87L888.427 1445.7ZM918.084 1418.87L891.255 1445.7L888.427 1442.87L915.255 1416.04L918.084 1418.87ZM937.268 1440.88L915.255 1418.87L918.084 1416.04L940.097 1438.05L937.268 1440.88ZM910.44 1464.88L937.268 1438.05L940.097 1440.88L913.268 1467.71L910.44 1464.88ZM937.268 1494.54L910.44 1467.71L913.268 1464.88L940.097 1491.71L937.268 1494.54Z" fill="#3F3F3F" mask="url(#path-10-inside-4)"/>
<rect x="110" y="464" width="113" height="113" fill="#3F3F3F"/>
<rect x="140.132" y="494.133" width="52.7333" height="52.7333" fill="#2E2E2E"/>
<rect x="1097" y="789" width="60.8112" height="60.8112" transform="rotate(-45 1097 789)" fill="#3F3F3F"/>
<rect x="1119.93" y="789" width="28.3786" height="28.3786" transform="rotate(-45 1119.93 789)" fill="#2E2E2E"/>
<rect x="377" y="1836" width="113" height="113" fill="#3F3F3F"/>
<rect x="407.132" y="1866.13" width="52.7333" height="52.7333" fill="#2E2E2E"/>
<path d="M940.041 303.504L883.01 336.431L883.01 270.578L940.041 303.504Z" fill="#3F3F3F"/>
<path d="M891.752 258.692L944.283 289.02L891.752 319.349L891.752 258.692Z" stroke="#3F3F3F" stroke-width="3"/>
<rect x="27.5771" y="1230" width="39" height="39" transform="rotate(45 27.5771 1230)" fill="#3F3F3F"/>
<rect x="27.5771" y="1244.71" width="18.2" height="18.2" transform="rotate(45 27.5771 1244.71)" fill="#2E2E2E"/>
<path d="M32.3999 92.1001L130.05 35.7218L130.05 148.478L32.3999 92.1001Z" fill="#3F3F3F"/>
<path d="M116.15 170.68L23 116.9L116.15 63.1197L116.15 170.68Z" stroke="#3F3F3F" stroke-width="3"/>
<mask id="path-24-inside-5" fill="white">
<path fill-rule="evenodd" clip-rule="evenodd" d="M1119.41 41.4696L1097.4 19.4567L1070.57 46.2852L1043.74 19.4569L1021.73 41.4698L1048.56 68.2981L1021.73 95.1261L1043.74 117.139L1070.57 90.311L1097.4 117.139L1119.41 95.1263L1092.58 68.2981L1119.41 41.4696Z"/>
</mask>
<path fill-rule="evenodd" clip-rule="evenodd" d="M1119.41 41.4696L1097.4 19.4567L1070.57 46.2852L1043.74 19.4569L1021.73 41.4698L1048.56 68.2981L1021.73 95.1261L1043.74 117.139L1070.57 90.311L1097.4 117.139L1119.41 95.1263L1092.58 68.2981L1119.41 41.4696Z" fill="#3F3F3F"/>
<path d="M1097.4 19.4567L1098.81 18.0425L1097.4 16.6283L1095.98 18.0425L1097.4 19.4567ZM1119.41 41.4696L1120.82 42.8839L1122.24 41.4696L1120.82 40.0554L1119.41 41.4696ZM1070.57 46.2852L1069.16 47.6994L1070.57 49.1136L1071.98 47.6994L1070.57 46.2852ZM1043.74 19.4569L1045.16 18.0427L1043.74 16.6284L1042.33 18.0427L1043.74 19.4569ZM1021.73 41.4698L1020.31 40.0556L1018.9 41.4698L1020.31 42.884L1021.73 41.4698ZM1048.56 68.2981L1049.97 69.7123L1051.38 68.2981L1049.97 66.8839L1048.56 68.2981ZM1021.73 95.1261L1020.31 93.7119L1018.9 95.1261L1020.31 96.5403L1021.73 95.1261ZM1043.74 117.139L1042.33 118.553L1043.74 119.967L1045.16 118.553L1043.74 117.139ZM1070.57 90.311L1071.98 88.8968L1070.57 87.4826L1069.16 88.8968L1070.57 90.311ZM1097.4 117.139L1095.98 118.553L1097.4 119.968L1098.81 118.553L1097.4 117.139ZM1119.41 95.1263L1120.82 96.5405L1122.24 95.1263L1120.82 93.712L1119.41 95.1263ZM1092.58 68.2981L1091.17 66.8839L1089.75 68.2981L1091.17 69.7123L1092.58 68.2981ZM1095.98 20.8709L1118 42.8839L1120.82 40.0554L1098.81 18.0425L1095.98 20.8709ZM1071.98 47.6994L1098.81 20.8709L1095.98 18.0425L1069.16 44.871L1071.98 47.6994ZM1042.33 20.8711L1069.16 47.6994L1071.98 44.871L1045.16 18.0427L1042.33 20.8711ZM1023.14 42.884L1045.16 20.8711L1042.33 18.0427L1020.31 40.0556L1023.14 42.884ZM1049.97 66.8839L1023.14 40.0556L1020.31 42.884L1047.14 69.7123L1049.97 66.8839ZM1023.14 96.5403L1049.97 69.7123L1047.14 66.8839L1020.31 93.7119L1023.14 96.5403ZM1045.16 115.725L1023.14 93.7119L1020.31 96.5403L1042.33 118.553L1045.16 115.725ZM1069.16 88.8968L1042.33 115.725L1045.16 118.553L1071.98 91.7253L1069.16 88.8968ZM1098.81 115.725L1071.98 88.8968L1069.16 91.7253L1095.98 118.553L1098.81 115.725ZM1118 93.712L1095.98 115.725L1098.81 118.553L1120.82 96.5405L1118 93.712ZM1091.17 69.7123L1118 96.5405L1120.82 93.712L1094 66.8839L1091.17 69.7123ZM1118 40.0554L1091.17 66.8839L1094 69.7123L1120.82 42.8839L1118 40.0554Z" fill="#3F3F3F" mask="url(#path-24-inside-5)"/>
<mask id="path-26-inside-6" fill="white">
<path fill-rule="evenodd" clip-rule="evenodd" d="M1109.68 22.0129L1087.67 0L1060.84 26.8283L1034.01 0.000150327L1012 22.0131L1038.83 48.8412L1012 75.6694L1034.01 97.6823L1060.84 70.8541L1087.67 97.6824L1109.68 75.6695L1082.85 48.8412L1109.68 22.0129Z"/>
</mask>
<path d="M1087.67 0L1089.08 -1.41421L1087.67 -2.82843L1086.26 -1.41421L1087.67 0ZM1109.68 22.0129L1111.1 23.4271L1112.51 22.0129L1111.1 20.5987L1109.68 22.0129ZM1060.84 26.8283L1059.43 28.2425L1060.84 29.6567L1062.26 28.2425L1060.84 26.8283ZM1034.01 0.000150327L1035.43 -1.41406L1034.01 -2.82828L1032.6 -1.41406L1034.01 0.000150327ZM1012 22.0131L1010.59 20.5989L1009.17 22.0131L1010.59 23.4273L1012 22.0131ZM1038.83 48.8412L1040.24 50.2554L1041.66 48.8412L1040.24 47.427L1038.83 48.8412ZM1012 75.6694L1010.59 74.2552L1009.17 75.6694L1010.59 77.0836L1012 75.6694ZM1034.01 97.6823L1032.6 99.0965L1034.01 100.511L1035.43 99.0965L1034.01 97.6823ZM1060.84 70.8541L1062.26 69.4399L1060.84 68.0257L1059.43 69.4399L1060.84 70.8541ZM1087.67 97.6824L1086.26 99.0967L1087.67 100.511L1089.08 99.0967L1087.67 97.6824ZM1109.68 75.6695L1111.1 77.0837L1112.51 75.6695L1111.1 74.2553L1109.68 75.6695ZM1082.85 48.8412L1081.44 47.427L1080.03 48.8412L1081.44 50.2554L1082.85 48.8412ZM1086.26 1.41421L1108.27 23.4271L1111.1 20.5987L1089.08 -1.41421L1086.26 1.41421ZM1062.26 28.2425L1089.08 1.41421L1086.26 -1.41421L1059.43 25.4141L1062.26 28.2425ZM1032.6 1.41436L1059.43 28.2425L1062.26 25.4141L1035.43 -1.41406L1032.6 1.41436ZM1013.41 23.4273L1035.43 1.41436L1032.6 -1.41406L1010.59 20.5989L1013.41 23.4273ZM1040.24 47.427L1013.41 20.5989L1010.59 23.4273L1037.41 50.2554L1040.24 47.427ZM1013.41 77.0836L1040.24 50.2554L1037.41 47.427L1010.59 74.2552L1013.41 77.0836ZM1035.43 96.2681L1013.41 74.2552L1010.59 77.0836L1032.6 99.0965L1035.43 96.2681ZM1059.43 69.4399L1032.6 96.2681L1035.43 99.0965L1062.26 72.2683L1059.43 69.4399ZM1089.08 96.2682L1062.26 69.4399L1059.43 72.2683L1086.26 99.0967L1089.08 96.2682ZM1108.27 74.2553L1086.26 96.2682L1089.08 99.0967L1111.1 77.0837L1108.27 74.2553ZM1081.44 50.2554L1108.27 77.0837L1111.1 74.2553L1084.27 47.427L1081.44 50.2554ZM1108.27 20.5987L1081.44 47.427L1084.27 50.2554L1111.1 23.4271L1108.27 20.5987Z" fill="#3F3F3F" mask="url(#path-26-inside-6)"/>
<circle cx="35.3584" cy="690.358" r="28.8105" fill="#3F3F3F"/>
<circle cx="28.8105" cy="683.81" r="27.3105" stroke="#3F3F3F" stroke-width="3"/>
<circle cx="28.8105" cy="683.81" r="15.5244" stroke="#3F3F3F" stroke-width="3"/>
<circle r="24.245" transform="matrix(1 0 0 -1 151.755 1380.24)" fill="#3F3F3F"/>
<circle r="22.745" transform="matrix(1 0 0 -1 146.245 1385.76)" stroke="#3F3F3F" stroke-width="3"/>
<circle r="12.8266" transform="matrix(1 0 0 -1 146.245 1385.75)" stroke="#3F3F3F" stroke-width="3"/>
<circle cx="1117.21" cy="1800.21" r="46.6183" fill="#3F3F3F"/>
<circle cx="1106.62" cy="1789.62" r="45.1183" stroke="#3F3F3F" stroke-width="3"/>
<circle cx="1106.62" cy="1789.62" r="26.0472" stroke="#3F3F3F" stroke-width="3"/>
<circle r="40.8572" transform="matrix(1 0 0 -1 964.142 572.857)" fill="#3F3F3F"/>
<circle r="39.3572" transform="matrix(1 0 0 -1 954.857 582.143)" stroke="#3F3F3F" stroke-width="3"/>
<circle r="22.6429" transform="matrix(1 0 0 -1 954.857 582.143)" stroke="#3F3F3F" stroke-width="3"/>
<path d="M110.318 1721.64L231.58 1791.65L231.58 1651.63L110.318 1721.64Z" fill="#3F3F3F"/>
<path d="M214.681 1623.43L97.9194 1690.84L214.681 1758.25L214.681 1623.43Z" stroke="#3F3F3F" stroke-width="3"/>
<path d="M1158.88 1215.94L1065.97 1162.3L1065.97 1269.58L1158.88 1215.94Z" fill="#3F3F3F"/>
<path d="M1079.27 1290.58L1167.68 1239.54L1079.27 1188.49L1079.27 1290.58Z" stroke="#3F3F3F" stroke-width="3"/>
</svg>
