<svg width="223" height="36" viewBox="0 0 223 36" fill="none" xmlns="http://www.w3.org/2000/svg">
<path d="M0 3H6.72239V27.3646H18.7978V32.6271H0V3Z" fill="white"/>
<path d="M23.7469 3H43.0841V8.22099H30.4278V15.1409H40.5529V20.0304H30.4278V27.4061H43.7481V32.6271H23.7469V3Z" fill="white"/>
<path d="M46.6288 3H53.4342L58.0818 23.4696L63.1443 3H68.8708L74.1408 23.5939L78.9544 3H85.1788L77.9585 32.6271H71.1116L65.7586 12.1575L60.3226 32.6271H53.8492L46.6288 3Z" fill="white"/>
<path d="M99.2211 27.4061C105.086 27.4061 108.018 24.2431 108.018 17.9171V17.5856C108.018 14.4641 107.299 12.1298 105.86 10.5829C104.45 9.00829 102.209 8.22099 99.1381 8.22099H96.4823V27.4061H99.2211ZM89.7599 3H99.4701C104.533 3 108.433 4.29834 111.172 6.89503C113.745 9.46409 115.031 13 115.031 17.5028V17.8343C115.031 22.3923 113.731 25.9696 111.131 28.5663C108.419 31.2735 104.519 32.6271 99.4286 32.6271H89.7599V3Z" fill="white"/>
<path d="M134.012 8.22099H126.003V3H148.785V8.22099H140.776V32.6271H134.012V8.22099Z" fill="white"/>
<path d="M151.488 3H158.584L165.638 25.7486L172.693 3H179L169.124 32.6271H161.406L151.488 3Z" fill="white"/>
<path fill-rule="evenodd" clip-rule="evenodd" d="M198.937 4.02729L215.163 13.4492L198.937 22.8711L198.937 4.02729ZM195.937 2.28535L195.937 24.613L195.937 28.082L198.937 26.3401L218.151 15.1837L223 17.9995L192 35.9995L192 -0.000518799L195.937 2.28535Z" fill="url(#paint0_linear)"/>
<defs>
<linearGradient id="paint0_linear" x1="207.5" y1="6.69716" x2="193.401" y2="36.9949" gradientUnits="userSpaceOnUse">
<stop stop-color="#E3833E"/>
<stop offset="1" stop-color="#942FD1"/>
</linearGradient>
</defs>
</svg>
