<svg xmlns="http://www.w3.org/2000/svg" width="65.182" height="65.182" viewBox="0 0 65.182 65.182"><path d="M184.27,130.866,157.746,115.55a2.17,2.17,0,0,0-2.22,0,2.22,2.22,0,0,0-1.11,1.924v30.593a2.22,2.22,0,0,0,1.11,1.924,2.229,2.229,0,0,0,2.22,0l26.487-15.315a2.209,2.209,0,0,0,.037-3.81Zm-25.414,13.392V121.321l19.828,11.468Z" transform="translate(-134.256 -100.198)" fill="#fff"/><path d="M32.591,0A32.591,32.591,0,1,0,65.182,32.591,32.618,32.618,0,0,0,32.591,0Zm0,60.743A28.152,28.152,0,1,1,60.743,32.591,28.166,28.166,0,0,1,32.591,60.743Z" fill="#fff"/></svg>